<?xml version="1.0" encoding="UTF-8" standalone="no"?><svg xmlns="http://www.w3.org/2000/svg" xmlns:xlink="http://www.w3.org/1999/xlink" contentScriptType="application/ecmascript" contentStyleType="text/css" height="707px" preserveAspectRatio="none" style="width:526px;height:707px;" version="1.1" viewBox="0 0 526 707" width="526px" zoomAndPan="magnify"><defs><filter height="300%" id="fwoz9kzf0xi42" width="300%" x="-1" y="-1"><feGaussianBlur result="blurOut" stdDeviation="2.0"/><feColorMatrix in="blurOut" result="blurOut2" type="matrix" values="0 0 0 0 0 0 0 0 0 0 0 0 0 0 0 0 0 0 .4 0"/><feOffset dx="4.0" dy="4.0" in="blurOut2" result="blurOut3"/><feBlend in="SourceGraphic" in2="blurOut3" mode="normal"/></filter></defs><g><!--MD5=[9c101522a52baae1dfbc61b43bbacb83]
cluster torch.utils.data--><polygon fill="#FFFFFF" filter="url(#fwoz9kzf0xi42)" points="22,283.5,147,283.5,154,305.7969,157,305.7969,157,382.5,22,382.5,22,283.5" style="stroke: #000000; stroke-width: 1.5;"/><line style="stroke: #000000; stroke-width: 1.5;" x1="22" x2="154" y1="305.7969" y2="305.7969"/><text fill="#000000" font-family="sans-serif" font-size="14" font-weight="bold" lengthAdjust="spacingAndGlyphs" textLength="119" x="26" y="298.4951">torch.utils.data</text><!--MD5=[649df52b41ea0d059d13fd2f1b4ce0c8]
cluster np--><polygon fill="#FFFFFF" filter="url(#fwoz9kzf0xi42)" points="72,596,98,596,105,618.2969,374,618.2969,374,695,72,695,72,596" style="stroke: #000000; stroke-width: 1.5;"/><line style="stroke: #000000; stroke-width: 1.5;" x1="72" x2="105" y1="618.2969" y2="618.2969"/><text fill="#000000" font-family="sans-serif" font-size="14" font-weight="bold" lengthAdjust="spacingAndGlyphs" textLength="20" x="76" y="610.9951">np</text><!--MD5=[cfa4af6f47c0630ca34639700b19b3ba]
cluster zipfile--><polygon fill="#FFFFFF" filter="url(#fwoz9kzf0xi42)" points="398,596,451,596,458,618.2969,504,618.2969,504,695,398,695,398,596" style="stroke: #000000; stroke-width: 1.5;"/><line style="stroke: #000000; stroke-width: 1.5;" x1="398" x2="458" y1="618.2969" y2="618.2969"/><text fill="#000000" font-family="sans-serif" font-size="14" font-weight="bold" lengthAdjust="spacingAndGlyphs" textLength="47" x="402" y="610.9951">zipfile</text><!--MD5=[7669237804e0205125fc0effab3908fa]
class torch.utils.data.Dataset--><rect fill="#FEFECE" filter="url(#fwoz9kzf0xi42)" height="48" id="torch.utils.data.Dataset" style="stroke: #A80036; stroke-width: 1.5;" width="82" x="57" y="318.5"/><ellipse cx="72" cy="334.5" fill="#ADD1B2" rx="11" ry="11" style="stroke: #A80036; stroke-width: 1.0;"/><path d="M74.9688,340.1406 Q74.3906,340.4375 73.75,340.5781 Q73.1094,340.7344 72.4063,340.7344 Q69.9063,340.7344 68.5781,339.0938 Q67.2656,337.4375 67.2656,334.3125 Q67.2656,331.1875 68.5781,329.5313 Q69.9063,327.875 72.4063,327.875 Q73.1094,327.875 73.75,328.0313 Q74.4063,328.1875 74.9688,328.4844 L74.9688,331.2031 Q74.3438,330.625 73.75,330.3594 Q73.1563,330.0781 72.5313,330.0781 Q71.1875,330.0781 70.5,331.1563 Q69.8125,332.2188 69.8125,334.3125 Q69.8125,336.4063 70.5,337.4844 Q71.1875,338.5469 72.5313,338.5469 Q73.1563,338.5469 73.75,338.2813 Q74.3438,338 74.9688,337.4219 L74.9688,340.1406 Z "/><text fill="#000000" font-family="sans-serif" font-size="12" lengthAdjust="spacingAndGlyphs" textLength="50" x="86" y="338.6543">Dataset</text><line style="stroke: #A80036; stroke-width: 1.5;" x1="58" x2="138" y1="350.5" y2="350.5"/><line style="stroke: #A80036; stroke-width: 1.5;" x1="58" x2="138" y1="358.5" y2="358.5"/><!--MD5=[590fa2a4a1b6b211d308ff64182fd018]
class np.zeros--><rect fill="#FEFECE" filter="url(#fwoz9kzf0xi42)" height="48" id="np.zeros" style="stroke: #A80036; stroke-width: 1.5;" width="65" x="88.5" y="631"/><ellipse cx="103.5" cy="647" fill="#ADD1B2" rx="11" ry="11" style="stroke: #A80036; stroke-width: 1.0;"/><path d="M106.4688,652.6406 Q105.8906,652.9375 105.25,653.0781 Q104.6094,653.2344 103.9063,653.2344 Q101.4063,653.2344 100.0781,651.5938 Q98.7656,649.9375 98.7656,646.8125 Q98.7656,643.6875 100.0781,642.0313 Q101.4063,640.375 103.9063,640.375 Q104.6094,640.375 105.25,640.5313 Q105.9063,640.6875 106.4688,640.9844 L106.4688,643.7031 Q105.8438,643.125 105.25,642.8594 Q104.6563,642.5781 104.0313,642.5781 Q102.6875,642.5781 102,643.6563 Q101.3125,644.7188 101.3125,646.8125 Q101.3125,648.9063 102,649.9844 Q102.6875,651.0469 104.0313,651.0469 Q104.6563,651.0469 105.25,650.7813 Q105.8438,650.5 106.4688,649.9219 L106.4688,652.6406 Z "/><text fill="#000000" font-family="sans-serif" font-size="12" lengthAdjust="spacingAndGlyphs" textLength="33" x="117.5" y="651.1543">zeros</text><line style="stroke: #A80036; stroke-width: 1.5;" x1="89.5" x2="152.5" y1="663" y2="663"/><line style="stroke: #A80036; stroke-width: 1.5;" x1="89.5" x2="152.5" y1="671" y2="671"/><!--MD5=[e1bbbf29fda1717cf718e38f90cf6c96]
class np.arange--><rect fill="#FEFECE" filter="url(#fwoz9kzf0xi42)" height="48" id="np.arange" style="stroke: #A80036; stroke-width: 1.5;" width="77" x="188.5" y="631"/><ellipse cx="203.5" cy="647" fill="#ADD1B2" rx="11" ry="11" style="stroke: #A80036; stroke-width: 1.0;"/><path d="M206.4688,652.6406 Q205.8906,652.9375 205.25,653.0781 Q204.6094,653.2344 203.9063,653.2344 Q201.4063,653.2344 200.0781,651.5938 Q198.7656,649.9375 198.7656,646.8125 Q198.7656,643.6875 200.0781,642.0313 Q201.4063,640.375 203.9063,640.375 Q204.6094,640.375 205.25,640.5313 Q205.9063,640.6875 206.4688,640.9844 L206.4688,643.7031 Q205.8438,643.125 205.25,642.8594 Q204.6563,642.5781 204.0313,642.5781 Q202.6875,642.5781 202,643.6563 Q201.3125,644.7188 201.3125,646.8125 Q201.3125,648.9063 202,649.9844 Q202.6875,651.0469 204.0313,651.0469 Q204.6563,651.0469 205.25,650.7813 Q205.8438,650.5 206.4688,649.9219 L206.4688,652.6406 Z "/><text fill="#000000" font-family="sans-serif" font-size="12" lengthAdjust="spacingAndGlyphs" textLength="45" x="217.5" y="651.1543">arange</text><line style="stroke: #A80036; stroke-width: 1.5;" x1="189.5" x2="264.5" y1="663" y2="663"/><line style="stroke: #A80036; stroke-width: 1.5;" x1="189.5" x2="264.5" y1="671" y2="671"/><!--MD5=[3caf566a77ca6021125c819f785f13c3]
class np.sort--><rect fill="#FEFECE" filter="url(#fwoz9kzf0xi42)" height="48" id="np.sort" style="stroke: #A80036; stroke-width: 1.5;" width="57" x="300.5" y="631"/><ellipse cx="315.5" cy="647" fill="#ADD1B2" rx="11" ry="11" style="stroke: #A80036; stroke-width: 1.0;"/><path d="M318.4688,652.6406 Q317.8906,652.9375 317.25,653.0781 Q316.6094,653.2344 315.9063,653.2344 Q313.4063,653.2344 312.0781,651.5938 Q310.7656,649.9375 310.7656,646.8125 Q310.7656,643.6875 312.0781,642.0313 Q313.4063,640.375 315.9063,640.375 Q316.6094,640.375 317.25,640.5313 Q317.9063,640.6875 318.4688,640.9844 L318.4688,643.7031 Q317.8438,643.125 317.25,642.8594 Q316.6563,642.5781 316.0313,642.5781 Q314.6875,642.5781 314,643.6563 Q313.3125,644.7188 313.3125,646.8125 Q313.3125,648.9063 314,649.9844 Q314.6875,651.0469 316.0313,651.0469 Q316.6563,651.0469 317.25,650.7813 Q317.8438,650.5 318.4688,649.9219 L318.4688,652.6406 Z "/><text fill="#000000" font-family="sans-serif" font-size="12" lengthAdjust="spacingAndGlyphs" textLength="25" x="329.5" y="651.1543">sort</text><line style="stroke: #A80036; stroke-width: 1.5;" x1="301.5" x2="356.5" y1="663" y2="663"/><line style="stroke: #A80036; stroke-width: 1.5;" x1="301.5" x2="356.5" y1="671" y2="671"/><!--MD5=[cc12db86f782b8f050e0adefa60edf33]
class zipfile.ZipFile--><rect fill="#FEFECE" filter="url(#fwoz9kzf0xi42)" height="48" id="zipfile.ZipFile" style="stroke: #A80036; stroke-width: 1.5;" width="73" x="414.5" y="631"/><ellipse cx="429.5" cy="647" fill="#ADD1B2" rx="11" ry="11" style="stroke: #A80036; stroke-width: 1.0;"/><path d="M432.4688,652.6406 Q431.8906,652.9375 431.25,653.0781 Q430.6094,653.2344 429.9063,653.2344 Q427.4063,653.2344 426.0781,651.5938 Q424.7656,649.9375 424.7656,646.8125 Q424.7656,643.6875 426.0781,642.0313 Q427.4063,640.375 429.9063,640.375 Q430.6094,640.375 431.25,640.5313 Q431.9063,640.6875 432.4688,640.9844 L432.4688,643.7031 Q431.8438,643.125 431.25,642.8594 Q430.6563,642.5781 430.0313,642.5781 Q428.6875,642.5781 428,643.6563 Q427.3125,644.7188 427.3125,646.8125 Q427.3125,648.9063 428,649.9844 Q428.6875,651.0469 430.0313,651.0469 Q430.6563,651.0469 431.25,650.7813 Q431.8438,650.5 432.4688,649.9219 L432.4688,652.6406 Z "/><text fill="#000000" font-family="sans-serif" font-size="12" lengthAdjust="spacingAndGlyphs" textLength="41" x="443.5" y="651.1543">ZipFile</text><line style="stroke: #A80036; stroke-width: 1.5;" x1="415.5" x2="486.5" y1="663" y2="663"/><line style="stroke: #A80036; stroke-width: 1.5;" x1="415.5" x2="486.5" y1="671" y2="671"/><!--MD5=[8b82677223ea9eb28a50de16faa90dcd]
class Dataset--><rect fill="#FEFECE" filter="url(#fwoz9kzf0xi42)" height="380.9219" id="Dataset" style="stroke: #A80036; stroke-width: 1.5;" width="118" x="174" y="152"/><ellipse cx="205.2" cy="168" fill="#ADD1B2" rx="11" ry="11" style="stroke: #A80036; stroke-width: 1.0;"/><path d="M208.1688,173.6406 Q207.5906,173.9375 206.95,174.0781 Q206.3094,174.2344 205.6063,174.2344 Q203.1063,174.2344 201.7781,172.5938 Q200.4656,170.9375 200.4656,167.8125 Q200.4656,164.6875 201.7781,163.0313 Q203.1063,161.375 205.6063,161.375 Q206.3094,161.375 206.95,161.5313 Q207.6063,161.6875 208.1688,161.9844 L208.1688,164.7031 Q207.5438,164.125 206.95,163.8594 Q206.3563,163.5781 205.7313,163.5781 Q204.3875,163.5781 203.7,164.6563 Q203.0125,165.7188 203.0125,167.8125 Q203.0125,169.9063 203.7,170.9844 Q204.3875,172.0469 205.7313,172.0469 Q206.3563,172.0469 206.95,171.7813 Q207.5438,171.5 208.1688,170.9219 L208.1688,173.6406 Z "/><text fill="#000000" font-family="sans-serif" font-size="12" lengthAdjust="spacingAndGlyphs" textLength="50" x="222.8" y="172.1543">Dataset</text><line style="stroke: #A80036; stroke-width: 1.5;" x1="175" x2="291" y1="184" y2="184"/><text fill="#000000" font-family="sans-serif" font-size="11" lengthAdjust="spacingAndGlyphs" textLength="74" x="180" y="198.2104">_label_shape</text><text fill="#000000" font-family="sans-serif" font-size="11" lengthAdjust="spacingAndGlyphs" textLength="38" x="180" y="211.0151">_name</text><text fill="#000000" font-family="sans-serif" font-size="11" lengthAdjust="spacingAndGlyphs" textLength="49" x="180" y="223.8198">_raw_idx</text><text fill="#000000" font-family="sans-serif" font-size="11" lengthAdjust="spacingAndGlyphs" textLength="67" x="180" y="236.6245">_raw_labels</text><text fill="#000000" font-family="sans-serif" font-size="11" lengthAdjust="spacingAndGlyphs" textLength="68" x="180" y="249.4292">_raw_shape</text><text fill="#000000" font-family="sans-serif" font-size="11" lengthAdjust="spacingAndGlyphs" textLength="67" x="180" y="262.2339">_use_labels</text><text fill="#000000" font-family="sans-serif" font-size="11" lengthAdjust="spacingAndGlyphs" textLength="29" x="180" y="275.0386">_xflip</text><text fill="#000000" font-family="sans-serif" font-size="11" lengthAdjust="spacingAndGlyphs" textLength="61" x="180" y="287.8433">has_labels</text><text fill="#000000" font-family="sans-serif" font-size="11" lengthAdjust="spacingAndGlyphs" textLength="106" x="180" y="300.6479">has_onehot_labels</text><text fill="#000000" font-family="sans-serif" font-size="11" lengthAdjust="spacingAndGlyphs" textLength="76" x="180" y="313.4526">image_shape</text><text fill="#000000" font-family="sans-serif" font-size="11" lengthAdjust="spacingAndGlyphs" textLength="54" x="180" y="326.2573">label_dim</text><text fill="#000000" font-family="sans-serif" font-size="11" lengthAdjust="spacingAndGlyphs" textLength="68" x="180" y="339.062">label_shape</text><text fill="#000000" font-family="sans-serif" font-size="11" lengthAdjust="spacingAndGlyphs" textLength="32" x="180" y="351.8667">name</text><text fill="#000000" font-family="sans-serif" font-size="11" lengthAdjust="spacingAndGlyphs" textLength="82" x="180" y="364.6714">num_channels</text><text fill="#000000" font-family="sans-serif" font-size="11" lengthAdjust="spacingAndGlyphs" textLength="57" x="180" y="377.4761">resolution</text><line style="stroke: #A80036; stroke-width: 1.5;" x1="175" x2="291" y1="384.0703" y2="384.0703"/><text fill="#000000" font-family="sans-serif" font-size="11" lengthAdjust="spacingAndGlyphs" textLength="49" x="180" y="398.2808">__del__()</text><text fill="#000000" font-family="sans-serif" font-size="11" lengthAdjust="spacingAndGlyphs" textLength="75" x="180" y="411.0854">__getitem__()</text><text fill="#000000" font-family="sans-serif" font-size="11" lengthAdjust="spacingAndGlyphs" textLength="79" x="180" y="423.8901">__getstate__()</text><text fill="#000000" font-family="sans-serif" font-size="11" lengthAdjust="spacingAndGlyphs" textLength="49" x="180" y="436.6948">__init__()</text><text fill="#000000" font-family="sans-serif" font-size="11" lengthAdjust="spacingAndGlyphs" textLength="49" x="180" y="449.4995">__len__()</text><text fill="#000000" font-family="sans-serif" font-size="11" lengthAdjust="spacingAndGlyphs" textLength="99" x="180" y="462.3042">_get_raw_labels()</text><text fill="#000000" font-family="sans-serif" font-size="11" lengthAdjust="spacingAndGlyphs" textLength="106" x="180" y="475.1089">_load_raw_image()</text><text fill="#000000" font-family="sans-serif" font-size="11" lengthAdjust="spacingAndGlyphs" textLength="105" x="180" y="487.9136">_load_raw_labels()</text><text fill="#000000" font-family="sans-serif" font-size="11" lengthAdjust="spacingAndGlyphs" textLength="38" x="180" y="500.7183">close()</text><text fill="#000000" font-family="sans-serif" font-size="11" lengthAdjust="spacingAndGlyphs" textLength="70" x="180" y="513.5229">get_details()</text><text fill="#000000" font-family="sans-serif" font-size="11" lengthAdjust="spacingAndGlyphs" textLength="59" x="180" y="526.3276">get_label()</text><!--MD5=[c6c95b8e890fd7c32c681a70760b28a4]
class ImageFolderDataset--><rect fill="#FEFECE" filter="url(#fwoz9kzf0xi42)" height="368.1172" id="ImageFolderDataset" style="stroke: #A80036; stroke-width: 1.5;" width="159" x="327.5" y="158.5"/><ellipse cx="342.5" cy="174.5" fill="#ADD1B2" rx="11" ry="11" style="stroke: #A80036; stroke-width: 1.0;"/><path d="M345.4688,180.1406 Q344.8906,180.4375 344.25,180.5781 Q343.6094,180.7344 342.9063,180.7344 Q340.4063,180.7344 339.0781,179.0938 Q337.7656,177.4375 337.7656,174.3125 Q337.7656,171.1875 339.0781,169.5313 Q340.4063,167.875 342.9063,167.875 Q343.6094,167.875 344.25,168.0313 Q344.9063,168.1875 345.4688,168.4844 L345.4688,171.2031 Q344.8438,170.625 344.25,170.3594 Q343.6563,170.0781 343.0313,170.0781 Q341.6875,170.0781 341,171.1563 Q340.3125,172.2188 340.3125,174.3125 Q340.3125,176.4063 341,177.4844 Q341.6875,178.5469 343.0313,178.5469 Q343.6563,178.5469 344.25,178.2813 Q344.8438,178 345.4688,177.4219 L345.4688,180.1406 Z "/><text fill="#000000" font-family="sans-serif" font-size="12" lengthAdjust="spacingAndGlyphs" textLength="127" x="356.5" y="178.6543">ImageFolderDataset</text><line style="stroke: #A80036; stroke-width: 1.5;" x1="328.5" x2="485.5" y1="190.5" y2="190.5"/><text fill="#000000" font-family="sans-serif" font-size="11" lengthAdjust="spacingAndGlyphs" textLength="68" x="333.5" y="204.7104">_all_fnames</text><text fill="#000000" font-family="sans-serif" font-size="11" lengthAdjust="spacingAndGlyphs" textLength="90" x="333.5" y="217.5151">_image_fnames</text><text fill="#000000" font-family="sans-serif" font-size="11" lengthAdjust="spacingAndGlyphs" textLength="31" x="333.5" y="230.3198">_path</text><text fill="#000000" font-family="sans-serif" font-size="11" lengthAdjust="spacingAndGlyphs" textLength="68" x="333.5" y="243.1245">_raw_shape</text><text fill="#000000" font-family="sans-serif" font-size="11" lengthAdjust="spacingAndGlyphs" textLength="30" x="333.5" y="255.9292">_type</text><text fill="#000000" font-family="sans-serif" font-size="11" lengthAdjust="spacingAndGlyphs" textLength="38" x="333.5" y="268.7339">_zipfile</text><text fill="#000000" font-family="sans-serif" font-size="11" lengthAdjust="spacingAndGlyphs" textLength="103" x="333.5" y="281.5386">add_camera_cond</text><text fill="#000000" font-family="sans-serif" font-size="11" lengthAdjust="spacingAndGlyphs" textLength="72" x="333.5" y="294.3433">camera_root</text><text fill="#000000" font-family="sans-serif" font-size="11" lengthAdjust="spacingAndGlyphs" textLength="78" x="333.5" y="307.1479">data_split_file</text><text fill="#000000" font-family="sans-serif" font-size="11" lengthAdjust="spacingAndGlyphs" textLength="72" x="333.5" y="319.9526">dataset_root</text><text fill="#000000" font-family="sans-serif" font-size="11" lengthAdjust="spacingAndGlyphs" textLength="92" x="333.5" y="332.7573">embedding_root</text><text fill="#000000" font-family="sans-serif" font-size="11" lengthAdjust="spacingAndGlyphs" textLength="71" x="333.5" y="345.562">images_root</text><text fill="#000000" font-family="sans-serif" font-size="11" lengthAdjust="spacingAndGlyphs" textLength="44" x="333.5" y="358.3667">img_list</text><text fill="#000000" font-family="sans-serif" font-size="11" lengthAdjust="spacingAndGlyphs" textLength="49" x="333.5" y="371.1714">img_size</text><text fill="#000000" font-family="sans-serif" font-size="11" lengthAdjust="spacingAndGlyphs" textLength="54" x="333.5" y="383.9761">mask_list</text><text fill="#000000" font-family="sans-serif" font-size="11" lengthAdjust="spacingAndGlyphs" textLength="23" x="333.5" y="396.7808">root</text><line style="stroke: #A80036; stroke-width: 1.5;" x1="328.5" x2="485.5" y1="403.375" y2="403.375"/><text fill="#000000" font-family="sans-serif" font-size="11" lengthAdjust="spacingAndGlyphs" textLength="75" x="333.5" y="417.5854">__getitem__()</text><text fill="#000000" font-family="sans-serif" font-size="11" lengthAdjust="spacingAndGlyphs" textLength="79" x="333.5" y="430.3901">__getstate__()</text><text fill="#000000" font-family="sans-serif" font-size="11" lengthAdjust="spacingAndGlyphs" textLength="49" x="333.5" y="443.1948">__init__()</text><text fill="#000000" font-family="sans-serif" font-size="11" lengthAdjust="spacingAndGlyphs" textLength="54" x="333.5" y="455.9995">_file_ext()</text><text fill="#000000" font-family="sans-serif" font-size="11" lengthAdjust="spacingAndGlyphs" textLength="70" x="333.5" y="468.8042">_get_zipfile()</text><text fill="#000000" font-family="sans-serif" font-size="11" lengthAdjust="spacingAndGlyphs" textLength="106" x="333.5" y="481.6089">_load_raw_image()</text><text fill="#000000" font-family="sans-serif" font-size="11" lengthAdjust="spacingAndGlyphs" textLength="105" x="333.5" y="494.4136">_load_raw_labels()</text><text fill="#000000" font-family="sans-serif" font-size="11" lengthAdjust="spacingAndGlyphs" textLength="65" x="333.5" y="507.2183">_open_file()</text><text fill="#000000" font-family="sans-serif" font-size="11" lengthAdjust="spacingAndGlyphs" textLength="38" x="333.5" y="520.0229">close()</text><!--MD5=[c0bd09710fdc1a03a509dea9fb3944c5]
class dataset_py--><rect fill="#8FBC8F" filter="url(#fwoz9kzf0xi42)" height="66.7422" id="dataset_py" style="stroke: #A80036; stroke-width: 1.5;" width="101" x="268.5" y="8"/><ellipse cx="283.5" cy="26.9688" fill="#DA70D6" rx="11" ry="11" style="stroke: #A80036; stroke-width: 1.0;"/><path d="M279.2188,20.5781 L282.1406,20.5781 L283.6094,26.0156 L285.0781,20.5781 L288.0156,20.5781 L288.0156,32.9688 L285.9063,32.9688 L285.9063,23.0469 L284.5938,28.4688 L282.6563,28.4688 L281.3281,23.0469 L281.3281,32.9688 L279.2188,32.9688 L279.2188,20.5781 Z "/><text fill="#000000" font-family="sans-serif" font-size="12" font-style="italic" lengthAdjust="spacingAndGlyphs" textLength="60" x="302" y="24.1387">«module»</text><text fill="#000000" font-family="sans-serif" font-size="12" lengthAdjust="spacingAndGlyphs" textLength="69" x="297.5" y="38.1074">dataset_py</text><line style="stroke: #A80036; stroke-width: 1.5;" x1="269.5" x2="368.5" y1="45.9375" y2="45.9375"/><text fill="#000000" font-family="sans-serif" font-size="11" lengthAdjust="spacingAndGlyphs" textLength="41" x="274.5" y="60.1479">pyspng</text><line style="stroke: #A80036; stroke-width: 1.5;" x1="269.5" x2="368.5" y1="66.7422" y2="66.7422"/><!--MD5=[c444ef39a309098853253d0d24186b5f]
reverse link torch.utils.data.Dataset to Dataset--><path d="M159.27,342.5 C164.17,342.5 169.07,342.5 173.97,342.5 " fill="none" id="torch.utils.data.Dataset&lt;-Dataset" style="stroke: #A80036; stroke-width: 1.0;"/><polygon fill="none" points="159.13,349.5,139.13,342.5,159.13,335.5,159.13,349.5" style="stroke: #A80036; stroke-width: 1.0;"/><!--MD5=[669eabe4e4e3e8865ea39bc460001502]
link Dataset to np.zeros--><path d="M165.9204,522.2765 C165.9204,522.2765 158.52,529.92 155,533 C115.57,567.5 72.99,521.51 41,563 C22.66,586.79 49.68,612.36 77.16,630.32 " fill="none" id="Dataset-np.zeros" style="stroke: #A80036; stroke-width: 1.0;"/><polygon fill="#A80036" points="88.43,637.28,82.8743,629.1477,84.1759,634.6528,78.6708,635.9543,88.43,637.28" style="stroke: #A80036; stroke-width: 1.0;"/><line style="stroke: #A80036; stroke-width: 1.0;" x1="84.1759" x2="77.37" y1="634.6528" y2="630.45"/><polygon fill="#A80036" points="173.77,513.2,166.8197,515.1217,165.9204,522.2765,172.8707,520.3548,173.77,513.2" style="stroke: #A80036; stroke-width: 1.0;"/><text fill="#000000" font-family="sans-serif" font-size="13" lengthAdjust="spacingAndGlyphs" textLength="73" x="42" y="576.0669">_raw_labels</text><!--MD5=[669eabe4e4e3e8865ea39bc460001502]
link Dataset to np.zeros--><path d="M169.8056,518.6771 C169.8056,518.6771 142.98,593.07 133.88,618.3 " fill="none" id="Dataset-np.zeros-1" style="stroke: #A80036; stroke-width: 1.0;"/><polygon fill="#A80036" points="129.36,630.82,136.1782,623.7128,131.0577,626.117,128.6535,620.9965,129.36,630.82" style="stroke: #A80036; stroke-width: 1.0;"/><line style="stroke: #A80036; stroke-width: 1.0;" x1="131.0577" x2="133.77" y1="626.117" y2="618.585"/><polygon fill="#A80036" points="173.88,507.39,168.0804,511.6754,169.8056,518.6771,175.6052,514.3917,173.88,507.39" style="stroke: #A80036; stroke-width: 1.0;"/><text fill="#000000" font-family="sans-serif" font-size="13" lengthAdjust="spacingAndGlyphs" textLength="32" x="153" y="576.0669">_xflip</text><!--MD5=[365b8d1dd3184b18fa969b432a495a98]
link Dataset to np.arange--><path d="M229.1024,545.0576 C229.1024,545.0576 228.07,598.49 227.7,617.58 " fill="none" id="Dataset-np.arange" style="stroke: #A80036; stroke-width: 1.0;"/><polygon fill="#A80036" points="227.45,630.66,231.6272,621.7409,227.5489,625.661,223.6288,621.5827,227.45,630.66" style="stroke: #A80036; stroke-width: 1.0;"/><line style="stroke: #A80036; stroke-width: 1.0;" x1="227.5489" x2="227.7" y1="625.661" y2="617.66"/><polygon fill="#A80036" points="229.34,533.06,225.222,538.9796,229.1024,545.0576,233.2204,539.138,229.34,533.06" style="stroke: #A80036; stroke-width: 1.0;"/><text fill="#000000" font-family="sans-serif" font-size="13" lengthAdjust="spacingAndGlyphs" textLength="54" x="230" y="576.0669">_raw_idx</text><!--MD5=[eb89889eca3e89298245003a5106cb7d]
link Dataset to np.sort--><path d="M295.1548,544.5245 C295.1548,544.5245 311.94,598.82 317.89,618.07 " fill="none" id="Dataset-np.sort" style="stroke: #A80036; stroke-width: 1.0;"/><polygon fill="#A80036" points="321.78,630.66,322.9397,620.8797,320.3015,625.8836,315.2975,623.2453,321.78,630.66" style="stroke: #A80036; stroke-width: 1.0;"/><line style="stroke: #A80036; stroke-width: 1.0;" x1="320.3015" x2="317.945" y1="625.8836" y2="618.235"/><polygon fill="#A80036" points="291.61,533.06,289.5609,539.9738,295.1548,544.5245,297.2039,537.6107,291.61,533.06" style="stroke: #A80036; stroke-width: 1.0;"/><text fill="#000000" font-family="sans-serif" font-size="13" lengthAdjust="spacingAndGlyphs" textLength="54" x="307" y="576.0669">_raw_idx</text><!--MD5=[9287c9466a8c14481a206eb13084524c]
reverse link Dataset to ImageFolderDataset--><path d="M312.37,342.5 C317.29,342.5 322.21,342.5 327.13,342.5 " fill="none" id="Dataset&lt;-ImageFolderDataset" style="stroke: #A80036; stroke-width: 1.0;"/><polygon fill="none" points="312.13,349.5,292.13,342.5,312.13,335.5,312.13,349.5" style="stroke: #A80036; stroke-width: 1.0;"/><!--MD5=[5ca0238ddf45de953fae562c89bfac3d]
link ImageFolderDataset to zipfile.ZipFile--><path d="M434.6678,538.6907 C434.6678,538.6907 442.91,596.94 445.83,617.51 " fill="none" id="ImageFolderDataset-zipfile.ZipFile" style="stroke: #A80036; stroke-width: 1.0;"/><polygon fill="#A80036" points="447.68,630.59,450.3744,621.1169,446.9767,625.6397,442.4539,622.2421,447.68,630.59" style="stroke: #A80036; stroke-width: 1.0;"/><line style="stroke: #A80036; stroke-width: 1.0;" x1="446.9767" x2="445.855" y1="625.6397" y2="617.72"/><polygon fill="#A80036" points="432.98,526.81,429.8637,533.313,434.6678,538.6907,437.7841,532.1877,432.98,526.81" style="stroke: #A80036; stroke-width: 1.0;"/><text fill="#000000" font-family="sans-serif" font-size="13" lengthAdjust="spacingAndGlyphs" textLength="43" x="442" y="576.0669">_zipfile</text><!--MD5=[36fefe83225ed126e5f5d14fd2e51583]
link dataset_py to Dataset--><path d="M294.09,75.22 C288.04,84.45 282.14,94.77 278,105 C271.97,119.92 266.73,135.7 262.19,151.74 " fill="none" id="dataset_py-Dataset" style="stroke: #A80036; stroke-width: 1.0; stroke-dasharray: 7.0,7.0;"/><text fill="#000000" font-family="sans-serif" font-size="13" lengthAdjust="spacingAndGlyphs" textLength="54" x="279" y="118.0669">contains</text><polygon fill="#000000" points="301.5,127.1328,304.5,133.1328,307.5,127.1328,301.5,127.1328" style="stroke: #000000; stroke-width: 1.0;"/><!--MD5=[a13c30a2fadc7d01f3c3dd0b49e2ded9]
link dataset_py to ImageFolderDataset--><path d="M337.63,75.24 C342.47,84.64 347.33,95.05 351,105 C357.31,122.12 363.08,140.21 368.32,158.45 " fill="none" id="dataset_py-ImageFolderDataset" style="stroke: #A80036; stroke-width: 1.0; stroke-dasharray: 7.0,7.0;"/><text fill="#000000" font-family="sans-serif" font-size="13" lengthAdjust="spacingAndGlyphs" textLength="54" x="357" y="118.0669">contains</text><polygon fill="#000000" points="379.5,127.1328,382.5,133.1328,385.5,127.1328,379.5,127.1328" style="stroke: #000000; stroke-width: 1.0;"/><!--MD5=[1d9c68d3c7c2cc759886e32801619aff]
@startuml
class Dataset {
    _label_shape
    _name
    _raw_idx
    _raw_labels
    _raw_shape
    _use_labels
    _xflip
    has_labels
    has_onehot_labels
    image_shape
    label_dim
    label_shape
    name
    num_channels
    resolution
    __del__()
    __getitem__()
    __getstate__()
    __init__()
    __len__()
    _get_raw_labels()
    _load_raw_image()
    _load_raw_labels()
    close()
    get_details()
    get_label()
}

torch.utils.data.Dataset <|- Dataset
Dataset *- -> np.zeros : _raw_labels
Dataset *- -> np.arange : _raw_idx
Dataset *- -> np.sort : _raw_idx
Dataset *- -> np.zeros : _xflip

class ImageFolderDataset {
    _all_fnames
    _image_fnames
    _path
    _raw_shape
    _type
    _zipfile
    add_camera_cond
    camera_root
    data_split_file
    dataset_root
    embedding_root
    images_root
    img_list
    img_size
    mask_list
    root
    __getitem__()
    __getstate__()
    __init__()
    _file_ext()
    _get_zipfile()
    _load_raw_image()
    _load_raw_labels()
    _open_file()
    close()
}

Dataset <|- ImageFolderDataset
ImageFolderDataset *- -> zipfile.ZipFile : _zipfile
class dataset_py <<module>> << (M,orchid) >> #DarkSeaGreen {
    pyspng
}

dataset_py .. Dataset : contains >
dataset_py .. ImageFolderDataset : contains >
@enduml

PlantUML version 1.2020.08(Sun Apr 26 14:08:22 UTC 2020)
(GPL source distribution)
Java Runtime: OpenJDK Runtime Environment
JVM: OpenJDK 64-Bit Server VM
Java Version: 1.8.0_402-heroku-b06
Operating System: Linux
Default Encoding: UTF-8
Language: en
Country: US
--></g></svg>