<?xml version="1.0" encoding="UTF-8" standalone="no"?><svg xmlns="http://www.w3.org/2000/svg" xmlns:xlink="http://www.w3.org/1999/xlink" contentScriptType="application/ecmascript" contentStyleType="text/css" height="362px" preserveAspectRatio="none" style="width:1149px;height:362px;" version="1.1" viewBox="0 0 1149 362" width="1149px" zoomAndPan="magnify"><defs><filter height="300%" id="fcgl0kmfq4inq" width="300%" x="-1" y="-1"><feGaussianBlur result="blurOut" stdDeviation="2.0"/><feColorMatrix in="blurOut" result="blurOut2" type="matrix" values="0 0 0 0 0 0 0 0 0 0 0 0 0 0 0 0 0 0 .4 0"/><feOffset dx="4.0" dy="4.0" in="blurOut2" result="blurOut3"/><feBlend in="SourceGraphic" in2="blurOut3" mode="normal"/></filter></defs><g><!--MD5=[8639b6965f21c551d878853afef83a02]
cluster torch--><polygon fill="#FFFFFF" filter="url(#fcgl0kmfq4inq)" points="26.5,215,74.5,215,81.5,237.2969,416.5,237.2969,416.5,314,26.5,314,26.5,215" style="stroke: #000000; stroke-width: 1.5;"/><line style="stroke: #000000; stroke-width: 1.5;" x1="26.5" x2="81.5" y1="237.2969" y2="237.2969"/><text fill="#000000" font-family="sans-serif" font-size="14" font-weight="bold" lengthAdjust="spacingAndGlyphs" textLength="42" x="30.5" y="229.9951">torch</text><!--MD5=[649df52b41ea0d059d13fd2f1b4ce0c8]
cluster np--><polygon fill="#FFFFFF" filter="url(#fcgl0kmfq4inq)" points="440.5,215,466.5,215,473.5,237.2969,1003.5,237.2969,1003.5,314,440.5,314,440.5,215" style="stroke: #000000; stroke-width: 1.5;"/><line style="stroke: #000000; stroke-width: 1.5;" x1="440.5" x2="473.5" y1="237.2969" y2="237.2969"/><text fill="#000000" font-family="sans-serif" font-size="14" font-weight="bold" lengthAdjust="spacingAndGlyphs" textLength="20" x="444.5" y="229.9951">np</text><!--MD5=[3621d044ab3778209b2dd8b43dec5a39]
cluster cv2--><polygon fill="#FFFFFF" filter="url(#fcgl0kmfq4inq)" points="1027.5,215,1061.5,215,1068.5,237.2969,1127.5,237.2969,1127.5,314,1027.5,314,1027.5,215" style="stroke: #000000; stroke-width: 1.5;"/><line style="stroke: #000000; stroke-width: 1.5;" x1="1027.5" x2="1068.5" y1="237.2969" y2="237.2969"/><text fill="#000000" font-family="sans-serif" font-size="14" font-weight="bold" lengthAdjust="spacingAndGlyphs" textLength="28" x="1031.5" y="229.9951">cv2</text><!--MD5=[82a3a8c78c226d727f8d299e294b4072]
class torch.device--><rect fill="#FEFECE" filter="url(#fcgl0kmfq4inq)" height="48" id="torch.device" style="stroke: #A80036; stroke-width: 1.5;" width="72" x="42.5" y="250"/><ellipse cx="57.5" cy="266" fill="#ADD1B2" rx="11" ry="11" style="stroke: #A80036; stroke-width: 1.0;"/><path d="M60.4688,271.6406 Q59.8906,271.9375 59.25,272.0781 Q58.6094,272.2344 57.9063,272.2344 Q55.4063,272.2344 54.0781,270.5938 Q52.7656,268.9375 52.7656,265.8125 Q52.7656,262.6875 54.0781,261.0313 Q55.4063,259.375 57.9063,259.375 Q58.6094,259.375 59.25,259.5313 Q59.9063,259.6875 60.4688,259.9844 L60.4688,262.7031 Q59.8438,262.125 59.25,261.8594 Q58.6563,261.5781 58.0313,261.5781 Q56.6875,261.5781 56,262.6563 Q55.3125,263.7188 55.3125,265.8125 Q55.3125,267.9063 56,268.9844 Q56.6875,270.0469 58.0313,270.0469 Q58.6563,270.0469 59.25,269.7813 Q59.8438,269.5 60.4688,268.9219 L60.4688,271.6406 Z "/><text fill="#000000" font-family="sans-serif" font-size="12" lengthAdjust="spacingAndGlyphs" textLength="40" x="71.5" y="270.1543">device</text><line style="stroke: #A80036; stroke-width: 1.5;" x1="43.5" x2="113.5" y1="282" y2="282"/><line style="stroke: #A80036; stroke-width: 1.5;" x1="43.5" x2="113.5" y1="290" y2="290"/><!--MD5=[b3520b04c39f534e88515171206414d7]
class torch.load--><rect fill="#FEFECE" filter="url(#fcgl0kmfq4inq)" height="48" id="torch.load" style="stroke: #A80036; stroke-width: 1.5;" width="59" x="150" y="250"/><ellipse cx="165" cy="266" fill="#ADD1B2" rx="11" ry="11" style="stroke: #A80036; stroke-width: 1.0;"/><path d="M167.9688,271.6406 Q167.3906,271.9375 166.75,272.0781 Q166.1094,272.2344 165.4063,272.2344 Q162.9063,272.2344 161.5781,270.5938 Q160.2656,268.9375 160.2656,265.8125 Q160.2656,262.6875 161.5781,261.0313 Q162.9063,259.375 165.4063,259.375 Q166.1094,259.375 166.75,259.5313 Q167.4063,259.6875 167.9688,259.9844 L167.9688,262.7031 Q167.3438,262.125 166.75,261.8594 Q166.1563,261.5781 165.5313,261.5781 Q164.1875,261.5781 163.5,262.6563 Q162.8125,263.7188 162.8125,265.8125 Q162.8125,267.9063 163.5,268.9844 Q164.1875,270.0469 165.5313,270.0469 Q166.1563,270.0469 166.75,269.7813 Q167.3438,269.5 167.9688,268.9219 L167.9688,271.6406 Z "/><text fill="#000000" font-family="sans-serif" font-size="12" lengthAdjust="spacingAndGlyphs" textLength="27" x="179" y="270.1543">load</text><line style="stroke: #A80036; stroke-width: 1.5;" x1="151" x2="208" y1="282" y2="282"/><line style="stroke: #A80036; stroke-width: 1.5;" x1="151" x2="208" y1="290" y2="290"/><!--MD5=[f2effa5c933cba804da85d7f3bfe8d97]
class torch.randn--><rect fill="#FEFECE" filter="url(#fcgl0kmfq4inq)" height="48" id="torch.randn" style="stroke: #A80036; stroke-width: 1.5;" width="69" x="244" y="250"/><ellipse cx="259" cy="266" fill="#ADD1B2" rx="11" ry="11" style="stroke: #A80036; stroke-width: 1.0;"/><path d="M261.9688,271.6406 Q261.3906,271.9375 260.75,272.0781 Q260.1094,272.2344 259.4063,272.2344 Q256.9063,272.2344 255.5781,270.5938 Q254.2656,268.9375 254.2656,265.8125 Q254.2656,262.6875 255.5781,261.0313 Q256.9063,259.375 259.4063,259.375 Q260.1094,259.375 260.75,259.5313 Q261.4063,259.6875 261.9688,259.9844 L261.9688,262.7031 Q261.3438,262.125 260.75,261.8594 Q260.1563,261.5781 259.5313,261.5781 Q258.1875,261.5781 257.5,262.6563 Q256.8125,263.7188 256.8125,265.8125 Q256.8125,267.9063 257.5,268.9844 Q258.1875,270.0469 259.5313,270.0469 Q260.1563,270.0469 260.75,269.7813 Q261.3438,269.5 261.9688,268.9219 L261.9688,271.6406 Z "/><text fill="#000000" font-family="sans-serif" font-size="12" lengthAdjust="spacingAndGlyphs" textLength="37" x="273" y="270.1543">randn</text><line style="stroke: #A80036; stroke-width: 1.5;" x1="245" x2="312" y1="282" y2="282"/><line style="stroke: #A80036; stroke-width: 1.5;" x1="245" x2="312" y1="290" y2="290"/><!--MD5=[1bf82464b20765fd057657e82210ebcb]
class torch.cat--><rect fill="#FEFECE" filter="url(#fcgl0kmfq4inq)" height="48" id="torch.cat" style="stroke: #A80036; stroke-width: 1.5;" width="52" x="348.5" y="250"/><ellipse cx="363.5" cy="266" fill="#ADD1B2" rx="11" ry="11" style="stroke: #A80036; stroke-width: 1.0;"/><path d="M366.4688,271.6406 Q365.8906,271.9375 365.25,272.0781 Q364.6094,272.2344 363.9063,272.2344 Q361.4063,272.2344 360.0781,270.5938 Q358.7656,268.9375 358.7656,265.8125 Q358.7656,262.6875 360.0781,261.0313 Q361.4063,259.375 363.9063,259.375 Q364.6094,259.375 365.25,259.5313 Q365.9063,259.6875 366.4688,259.9844 L366.4688,262.7031 Q365.8438,262.125 365.25,261.8594 Q364.6563,261.5781 364.0313,261.5781 Q362.6875,261.5781 362,262.6563 Q361.3125,263.7188 361.3125,265.8125 Q361.3125,267.9063 362,268.9844 Q362.6875,270.0469 364.0313,270.0469 Q364.6563,270.0469 365.25,269.7813 Q365.8438,269.5 366.4688,268.9219 L366.4688,271.6406 Z "/><text fill="#000000" font-family="sans-serif" font-size="12" lengthAdjust="spacingAndGlyphs" textLength="20" x="377.5" y="270.1543">cat</text><line style="stroke: #A80036; stroke-width: 1.5;" x1="349.5" x2="399.5" y1="282" y2="282"/><line style="stroke: #A80036; stroke-width: 1.5;" x1="349.5" x2="399.5" y1="290" y2="290"/><!--MD5=[40ff7dec8797740b01032b797d673e74]
class np.asarray--><rect fill="#FEFECE" filter="url(#fcgl0kmfq4inq)" height="48" id="np.asarray" style="stroke: #A80036; stroke-width: 1.5;" width="79" x="456" y="250"/><ellipse cx="471" cy="266" fill="#ADD1B2" rx="11" ry="11" style="stroke: #A80036; stroke-width: 1.0;"/><path d="M473.9688,271.6406 Q473.3906,271.9375 472.75,272.0781 Q472.1094,272.2344 471.4063,272.2344 Q468.9063,272.2344 467.5781,270.5938 Q466.2656,268.9375 466.2656,265.8125 Q466.2656,262.6875 467.5781,261.0313 Q468.9063,259.375 471.4063,259.375 Q472.1094,259.375 472.75,259.5313 Q473.4063,259.6875 473.9688,259.9844 L473.9688,262.7031 Q473.3438,262.125 472.75,261.8594 Q472.1563,261.5781 471.5313,261.5781 Q470.1875,261.5781 469.5,262.6563 Q468.8125,263.7188 468.8125,265.8125 Q468.8125,267.9063 469.5,268.9844 Q470.1875,270.0469 471.5313,270.0469 Q472.1563,270.0469 472.75,269.7813 Q473.3438,269.5 473.9688,268.9219 L473.9688,271.6406 Z "/><text fill="#000000" font-family="sans-serif" font-size="12" lengthAdjust="spacingAndGlyphs" textLength="47" x="485" y="270.1543">asarray</text><line style="stroke: #A80036; stroke-width: 1.5;" x1="457" x2="534" y1="282" y2="282"/><line style="stroke: #A80036; stroke-width: 1.5;" x1="457" x2="534" y1="290" y2="290"/><!--MD5=[21cb3929f21f6a5301a6d281ed33aef1]
class np.sum--><rect fill="#FEFECE" filter="url(#fcgl0kmfq4inq)" height="48" id="np.sum" style="stroke: #A80036; stroke-width: 1.5;" width="58" x="570.5" y="250"/><ellipse cx="585.5" cy="266" fill="#ADD1B2" rx="11" ry="11" style="stroke: #A80036; stroke-width: 1.0;"/><path d="M588.4688,271.6406 Q587.8906,271.9375 587.25,272.0781 Q586.6094,272.2344 585.9063,272.2344 Q583.4063,272.2344 582.0781,270.5938 Q580.7656,268.9375 580.7656,265.8125 Q580.7656,262.6875 582.0781,261.0313 Q583.4063,259.375 585.9063,259.375 Q586.6094,259.375 587.25,259.5313 Q587.9063,259.6875 588.4688,259.9844 L588.4688,262.7031 Q587.8438,262.125 587.25,261.8594 Q586.6563,261.5781 586.0313,261.5781 Q584.6875,261.5781 584,262.6563 Q583.3125,263.7188 583.3125,265.8125 Q583.3125,267.9063 584,268.9844 Q584.6875,270.0469 586.0313,270.0469 Q586.6563,270.0469 587.25,269.7813 Q587.8438,269.5 588.4688,268.9219 L588.4688,271.6406 Z "/><text fill="#000000" font-family="sans-serif" font-size="12" lengthAdjust="spacingAndGlyphs" textLength="26" x="599.5" y="270.1543">sum</text><line style="stroke: #A80036; stroke-width: 1.5;" x1="571.5" x2="627.5" y1="282" y2="282"/><line style="stroke: #A80036; stroke-width: 1.5;" x1="571.5" x2="627.5" y1="290" y2="290"/><!--MD5=[67c97aac3a7a71b97ee77e31a979ba5a]
class np.ones--><rect fill="#FEFECE" filter="url(#fcgl0kmfq4inq)" height="48" id="np.ones" style="stroke: #A80036; stroke-width: 1.5;" width="63" x="664" y="250"/><ellipse cx="679" cy="266" fill="#ADD1B2" rx="11" ry="11" style="stroke: #A80036; stroke-width: 1.0;"/><path d="M681.9688,271.6406 Q681.3906,271.9375 680.75,272.0781 Q680.1094,272.2344 679.4063,272.2344 Q676.9063,272.2344 675.5781,270.5938 Q674.2656,268.9375 674.2656,265.8125 Q674.2656,262.6875 675.5781,261.0313 Q676.9063,259.375 679.4063,259.375 Q680.1094,259.375 680.75,259.5313 Q681.4063,259.6875 681.9688,259.9844 L681.9688,262.7031 Q681.3438,262.125 680.75,261.8594 Q680.1563,261.5781 679.5313,261.5781 Q678.1875,261.5781 677.5,262.6563 Q676.8125,263.7188 676.8125,265.8125 Q676.8125,267.9063 677.5,268.9844 Q678.1875,270.0469 679.5313,270.0469 Q680.1563,270.0469 680.75,269.7813 Q681.3438,269.5 681.9688,268.9219 L681.9688,271.6406 Z "/><text fill="#000000" font-family="sans-serif" font-size="12" lengthAdjust="spacingAndGlyphs" textLength="31" x="693" y="270.1543">ones</text><line style="stroke: #A80036; stroke-width: 1.5;" x1="665" x2="726" y1="282" y2="282"/><line style="stroke: #A80036; stroke-width: 1.5;" x1="665" x2="726" y1="290" y2="290"/><!--MD5=[4cfe968c01c15fc10ff52de0ba9479a0]
class np.concatenate--><rect fill="#FEFECE" filter="url(#fcgl0kmfq4inq)" height="48" id="np.concatenate" style="stroke: #A80036; stroke-width: 1.5;" width="112" x="762.5" y="250"/><ellipse cx="777.5" cy="266" fill="#ADD1B2" rx="11" ry="11" style="stroke: #A80036; stroke-width: 1.0;"/><path d="M780.4688,271.6406 Q779.8906,271.9375 779.25,272.0781 Q778.6094,272.2344 777.9063,272.2344 Q775.4063,272.2344 774.0781,270.5938 Q772.7656,268.9375 772.7656,265.8125 Q772.7656,262.6875 774.0781,261.0313 Q775.4063,259.375 777.9063,259.375 Q778.6094,259.375 779.25,259.5313 Q779.9063,259.6875 780.4688,259.9844 L780.4688,262.7031 Q779.8438,262.125 779.25,261.8594 Q778.6563,261.5781 778.0313,261.5781 Q776.6875,261.5781 776,262.6563 Q775.3125,263.7188 775.3125,265.8125 Q775.3125,267.9063 776,268.9844 Q776.6875,270.0469 778.0313,270.0469 Q778.6563,270.0469 779.25,269.7813 Q779.8438,269.5 780.4688,268.9219 L780.4688,271.6406 Z "/><text fill="#000000" font-family="sans-serif" font-size="12" lengthAdjust="spacingAndGlyphs" textLength="80" x="791.5" y="270.1543">concatenate</text><line style="stroke: #A80036; stroke-width: 1.5;" x1="763.5" x2="873.5" y1="282" y2="282"/><line style="stroke: #A80036; stroke-width: 1.5;" x1="763.5" x2="873.5" y1="290" y2="290"/><!--MD5=[e1bbbf29fda1717cf718e38f90cf6c96]
class np.arange--><rect fill="#FEFECE" filter="url(#fcgl0kmfq4inq)" height="48" id="np.arange" style="stroke: #A80036; stroke-width: 1.5;" width="77" x="910" y="250"/><ellipse cx="925" cy="266" fill="#ADD1B2" rx="11" ry="11" style="stroke: #A80036; stroke-width: 1.0;"/><path d="M927.9688,271.6406 Q927.3906,271.9375 926.75,272.0781 Q926.1094,272.2344 925.4063,272.2344 Q922.9063,272.2344 921.5781,270.5938 Q920.2656,268.9375 920.2656,265.8125 Q920.2656,262.6875 921.5781,261.0313 Q922.9063,259.375 925.4063,259.375 Q926.1094,259.375 926.75,259.5313 Q927.4063,259.6875 927.9688,259.9844 L927.9688,262.7031 Q927.3438,262.125 926.75,261.8594 Q926.1563,261.5781 925.5313,261.5781 Q924.1875,261.5781 923.5,262.6563 Q922.8125,263.7188 922.8125,265.8125 Q922.8125,267.9063 923.5,268.9844 Q924.1875,270.0469 925.5313,270.0469 Q926.1563,270.0469 926.75,269.7813 Q927.3438,269.5 927.9688,268.9219 L927.9688,271.6406 Z "/><text fill="#000000" font-family="sans-serif" font-size="12" lengthAdjust="spacingAndGlyphs" textLength="45" x="939" y="270.1543">arange</text><line style="stroke: #A80036; stroke-width: 1.5;" x1="911" x2="986" y1="282" y2="282"/><line style="stroke: #A80036; stroke-width: 1.5;" x1="911" x2="986" y1="290" y2="290"/><!--MD5=[5789b66dd6765bd4d3a48a2f702112d1]
class cv2.dilate--><rect fill="#FEFECE" filter="url(#fcgl0kmfq4inq)" height="48" id="cv2.dilate" style="stroke: #A80036; stroke-width: 1.5;" width="67" x="1044" y="250"/><ellipse cx="1059" cy="266" fill="#ADD1B2" rx="11" ry="11" style="stroke: #A80036; stroke-width: 1.0;"/><path d="M1061.9688,271.6406 Q1061.3906,271.9375 1060.75,272.0781 Q1060.1094,272.2344 1059.4063,272.2344 Q1056.9063,272.2344 1055.5781,270.5938 Q1054.2656,268.9375 1054.2656,265.8125 Q1054.2656,262.6875 1055.5781,261.0313 Q1056.9063,259.375 1059.4063,259.375 Q1060.1094,259.375 1060.75,259.5313 Q1061.4063,259.6875 1061.9688,259.9844 L1061.9688,262.7031 Q1061.3438,262.125 1060.75,261.8594 Q1060.1563,261.5781 1059.5313,261.5781 Q1058.1875,261.5781 1057.5,262.6563 Q1056.8125,263.7188 1056.8125,265.8125 Q1056.8125,267.9063 1057.5,268.9844 Q1058.1875,270.0469 1059.5313,270.0469 Q1060.1563,270.0469 1060.75,269.7813 Q1061.3438,269.5 1061.9688,268.9219 L1061.9688,271.6406 Z "/><text fill="#000000" font-family="sans-serif" font-size="12" lengthAdjust="spacingAndGlyphs" textLength="35" x="1073" y="270.1543">dilate</text><line style="stroke: #A80036; stroke-width: 1.5;" x1="1045" x2="1110" y1="282" y2="282"/><line style="stroke: #A80036; stroke-width: 1.5;" x1="1045" x2="1110" y1="290" y2="290"/><!--MD5=[626892efd644b6d811409d1d1a1cce7f]
class inference_3d_py--><rect fill="#8FBC8F" filter="url(#fcgl0kmfq4inq)" height="79.5469" id="inference_3d_py" style="stroke: #A80036; stroke-width: 1.5;" width="241" x="6" y="40"/><ellipse cx="71.75" cy="58.9688" fill="#DA70D6" rx="11" ry="11" style="stroke: #A80036; stroke-width: 1.0;"/><path d="M67.4688,52.5781 L70.3906,52.5781 L71.8594,58.0156 L73.3281,52.5781 L76.2656,52.5781 L76.2656,64.9688 L74.1563,64.9688 L74.1563,55.0469 L72.8438,60.4688 L70.9063,60.4688 L69.5781,55.0469 L69.5781,64.9688 L67.4688,64.9688 L67.4688,52.5781 Z "/><text fill="#000000" font-family="sans-serif" font-size="12" font-style="italic" lengthAdjust="spacingAndGlyphs" textLength="60" x="112.75" y="56.1387">«module»</text><text fill="#000000" font-family="sans-serif" font-size="12" lengthAdjust="spacingAndGlyphs" textLength="101" x="92.25" y="70.1074">inference_3d_py</text><line style="stroke: #A80036; stroke-width: 1.5;" x1="7" x2="246" y1="77.9375" y2="77.9375"/><line style="stroke: #A80036; stroke-width: 1.0;" x1="7" x2="246" y1="85.9375" y2="85.9375"/><text fill="#000000" font-family="sans-serif" font-size="11" lengthAdjust="spacingAndGlyphs" textLength="229" x="12" y="100.1479">clean_training_set_kwargs_for_metrics()</text><text fill="#000000" font-family="sans-serif" font-size="11" lengthAdjust="spacingAndGlyphs" textLength="61" x="12" y="112.9526">inference()</text><!--MD5=[f5cb9eafb267225361937eb64cf9b598]
class inference_utils_py--><rect fill="#8FBC8F" filter="url(#fcgl0kmfq4inq)" height="143.5703" id="inference_utils_py" style="stroke: #A80036; stroke-width: 1.5;" width="221" x="537" y="8"/><ellipse cx="587.75" cy="26.9688" fill="#DA70D6" rx="11" ry="11" style="stroke: #A80036; stroke-width: 1.0;"/><path d="M583.4688,20.5781 L586.3906,20.5781 L587.8594,26.0156 L589.3281,20.5781 L592.2656,20.5781 L592.2656,32.9688 L590.1563,32.9688 L590.1563,23.0469 L588.8438,28.4688 L586.9063,28.4688 L585.5781,23.0469 L585.5781,32.9688 L583.4688,32.9688 L583.4688,20.5781 Z "/><text fill="#000000" font-family="sans-serif" font-size="12" font-style="italic" lengthAdjust="spacingAndGlyphs" textLength="60" x="633.75" y="24.1387">«module»</text><text fill="#000000" font-family="sans-serif" font-size="12" lengthAdjust="spacingAndGlyphs" textLength="111" x="608.25" y="38.1074">inference_utils_py</text><line style="stroke: #A80036; stroke-width: 1.5;" x1="538" x2="757" y1="45.9375" y2="45.9375"/><line style="stroke: #A80036; stroke-width: 1.0;" x1="538" x2="757" y1="53.9375" y2="53.9375"/><text fill="#000000" font-family="sans-serif" font-size="11" lengthAdjust="spacingAndGlyphs" textLength="65" x="543" y="68.1479">gen_swap()</text><text fill="#000000" font-family="sans-serif" font-size="11" lengthAdjust="spacingAndGlyphs" textLength="96" x="543" y="80.9526">save_3d_shape()</text><text fill="#000000" font-family="sans-serif" font-size="11" lengthAdjust="spacingAndGlyphs" textLength="143" x="543" y="93.7573">save_geo_for_inference()</text><text fill="#000000" font-family="sans-serif" font-size="11" lengthAdjust="spacingAndGlyphs" textLength="104" x="543" y="106.562">save_image_grid()</text><text fill="#000000" font-family="sans-serif" font-size="11" lengthAdjust="spacingAndGlyphs" textLength="207" x="543" y="119.3667">save_textured_mesh_for_inference()</text><text fill="#000000" font-family="sans-serif" font-size="11" lengthAdjust="spacingAndGlyphs" textLength="110" x="543" y="132.1714">save_visualization()</text><text fill="#000000" font-family="sans-serif" font-size="11" lengthAdjust="spacingAndGlyphs" textLength="209" x="543" y="144.9761">save_visualization_for_interpolation()</text><!--MD5=[250ad1cf77d4e1337dd43ed0fb0772c3]
link inference_3d_py to torch.device--><path d="M110.34,120.23 C103.3,138.69 95.52,161.19 90.5,182 C85.52,202.64 82.47,226.44 80.7,244.52 " fill="none" id="inference_3d_py-&gt;torch.device" style="stroke: #A80036; stroke-width: 1.0;"/><polygon fill="#A80036" points="80.19,249.94,85.0195,241.3565,80.6607,244.9622,77.055,240.6034,80.19,249.94" style="stroke: #A80036; stroke-width: 1.0;"/><text fill="#000000" font-family="sans-serif" font-size="13" lengthAdjust="spacingAndGlyphs" textLength="30" x="91.5" y="195.0669">uses</text><!--MD5=[0ea2c7b831f8fc0fe9ea104a01b53348]
link inference_3d_py to torch.load--><path d="M137.35,120.32 C147.59,157.39 162.67,212.04 171.75,244.91 " fill="none" id="inference_3d_py-&gt;torch.load" style="stroke: #A80036; stroke-width: 1.0;"/><polygon fill="#A80036" points="173.15,249.99,174.6191,240.2513,171.8236,245.1692,166.9057,242.3736,173.15,249.99" style="stroke: #A80036; stroke-width: 1.0;"/><text fill="#000000" font-family="sans-serif" font-size="13" lengthAdjust="spacingAndGlyphs" textLength="30" x="159.5" y="195.0669">uses</text><!--MD5=[2c98196f1cf556da22fd6dbdd0fa8fce]
link inference_utils_py to np.asarray--><path d="M591.12,152.22 C565.4,184.71 536.47,221.25 517.23,245.55 " fill="none" id="inference_utils_py-&gt;np.asarray" style="stroke: #A80036; stroke-width: 1.0;"/><polygon fill="#A80036" points="513.99,249.64,522.7052,245.0526,517.0873,245.7149,516.425,240.0969,513.99,249.64" style="stroke: #A80036; stroke-width: 1.0;"/><text fill="#000000" font-family="sans-serif" font-size="13" lengthAdjust="spacingAndGlyphs" textLength="30" x="568.5" y="195.0669">uses</text><!--MD5=[b844a86c88f789a3dd91a1c6678feb68]
link inference_utils_py to np.sum--><path d="M622.78,152.06 C619.75,162.05 616.89,172.23 614.5,182 C609.44,202.72 605.58,226.52 603.05,244.58 " fill="none" id="inference_utils_py-&gt;np.sum" style="stroke: #A80036; stroke-width: 1.0;"/><polygon fill="#A80036" points="602.3,249.99,607.4955,241.623,602.9851,245.0372,599.5709,240.5268,602.3,249.99" style="stroke: #A80036; stroke-width: 1.0;"/><text fill="#000000" font-family="sans-serif" font-size="13" lengthAdjust="spacingAndGlyphs" textLength="30" x="615.5" y="195.0669">uses</text><!--MD5=[f2b9a71af2d80a1a2439bcc39b7a0a7c]
link inference_utils_py to np.ones--><path d="M665.31,152.22 C673.33,184.3 682.34,220.35 688.41,244.64 " fill="none" id="inference_utils_py-&gt;np.ones" style="stroke: #A80036; stroke-width: 1.0;"/><polygon fill="#A80036" points="689.66,249.64,691.3577,239.9386,688.4473,244.7893,683.5966,241.8789,689.66,249.64" style="stroke: #A80036; stroke-width: 1.0;"/><text fill="#000000" font-family="sans-serif" font-size="13" lengthAdjust="spacingAndGlyphs" textLength="30" x="677.5" y="195.0669">uses</text><!--MD5=[90107cc609a23ba56042157a543cf895]
link inference_utils_py to cv2.dilate--><path d="M758.25,108.17 C831.08,128.87 926.76,161.6 1003.5,207 C1021.38,217.58 1038.84,232.84 1052.31,246.03 " fill="none" id="inference_utils_py-&gt;cv2.dilate" style="stroke: #A80036; stroke-width: 1.0;"/><polygon fill="#A80036" points="1056,249.69,1052.4273,240.512,1052.4502,246.1688,1046.7934,246.1917,1056,249.69" style="stroke: #A80036; stroke-width: 1.0;"/><text fill="#000000" font-family="sans-serif" font-size="13" lengthAdjust="spacingAndGlyphs" textLength="30" x="986.5" y="195.0669">uses</text><!--MD5=[cad5e486e2cc232f866e147cf9a25db6]
link inference_utils_py to np.concatenate--><path d="M710.93,152.22 C739.98,184.84 772.68,221.56 794.32,245.85 " fill="none" id="inference_utils_py-&gt;np.concatenate" style="stroke: #A80036; stroke-width: 1.0;"/><polygon fill="#A80036" points="797.7,249.64,794.7104,240.2559,794.3782,245.903,788.7311,245.5708,797.7,249.64" style="stroke: #A80036; stroke-width: 1.0;"/><text fill="#000000" font-family="sans-serif" font-size="13" lengthAdjust="spacingAndGlyphs" textLength="30" x="748.5" y="195.0669">uses</text><!--MD5=[9ccd38877abd77011b73dfc988be310c]
link inference_utils_py to torch.randn--><path d="M536.82,109.3 C472.37,129.44 391.97,161.14 330.5,207 C316.53,217.42 304.27,232.49 295.17,245.61 " fill="none" id="inference_utils_py-&gt;torch.randn" style="stroke: #A80036; stroke-width: 1.0;"/><polygon fill="#A80036" points="292.21,249.97,300.5721,244.7666,295.0165,245.8319,293.9511,240.2763,292.21,249.97" style="stroke: #A80036; stroke-width: 1.0;"/><text fill="#000000" font-family="sans-serif" font-size="13" lengthAdjust="spacingAndGlyphs" textLength="30" x="362.5" y="195.0669">uses</text><!--MD5=[51822bf1f3140b87a35d914687b365dc]
link inference_utils_py to np.arange--><path d="M758.22,126.58 C802.35,147.56 852.14,174.95 892.5,207 C906.35,218 919.3,232.83 929.25,245.65 " fill="none" id="inference_utils_py-&gt;np.arange" style="stroke: #A80036; stroke-width: 1.0;"/><polygon fill="#A80036" points="932.51,249.92,930.228,240.3392,929.4759,245.9458,923.8693,245.1937,932.51,249.92" style="stroke: #A80036; stroke-width: 1.0;"/><text fill="#000000" font-family="sans-serif" font-size="13" lengthAdjust="spacingAndGlyphs" textLength="30" x="881.5" y="195.0669">uses</text><!--MD5=[591278638963765498f21b5c8224e6f8]
link inference_utils_py to torch.cat--><path d="M536.82,141.72 C504.69,161.08 470.27,183.6 440.5,207 C425.61,218.71 410.55,233.48 398.59,246.09 " fill="none" id="inference_utils_py-&gt;torch.cat" style="stroke: #A80036; stroke-width: 1.0;"/><polygon fill="#A80036" points="394.98,249.92,404.0611,246.1077,398.4068,246.279,398.2355,240.6247,394.98,249.92" style="stroke: #A80036; stroke-width: 1.0;"/><text fill="#000000" font-family="sans-serif" font-size="13" lengthAdjust="spacingAndGlyphs" textLength="30" x="473.5" y="195.0669">uses</text><text fill="#888888" font-family="sans-serif" font-size="10" lengthAdjust="spacingAndGlyphs" textLength="191" x="485.5" y="349.2822">Generated by GitUML www.gituml.com</text><!--MD5=[cf71978a2094c09377dffa0b49088999]
@startuml
class inference_3d_py <<module>> << (M,orchid) >> #DarkSeaGreen {
    - - -
    clean_training_set_kwargs_for_metrics()
    inference()
}

inference_3d_py - -> torch.device : uses
inference_3d_py - -> torch.load : uses
class inference_utils_py <<module>> << (M,orchid) >> #DarkSeaGreen {
    - - -
    gen_swap()
    save_3d_shape()
    save_geo_for_inference()
    save_image_grid()
    save_textured_mesh_for_inference()
    save_visualization()
    save_visualization_for_interpolation()
}

inference_utils_py - -> np.asarray : uses
inference_utils_py - -> np.sum : uses
inference_utils_py - -> np.ones : uses
inference_utils_py - -> cv2.dilate : uses
inference_utils_py - -> np.concatenate : uses
inference_utils_py - -> torch.randn : uses
inference_utils_py - -> np.arange : uses
inference_utils_py - -> torch.cat : uses
center footer Generated by GitUML www.gituml.com
@enduml

PlantUML version 1.2020.08(Sun Apr 26 14:08:22 UTC 2020)
(GPL source distribution)
Java Runtime: OpenJDK Runtime Environment
JVM: OpenJDK 64-Bit Server VM
Java Version: 1.8.0_402-heroku-b06
Operating System: Linux
Default Encoding: UTF-8
Language: en
Country: US
--></g></svg>