<?xml version="1.0" encoding="UTF-8" standalone="no"?><svg xmlns="http://www.w3.org/2000/svg" xmlns:xlink="http://www.w3.org/1999/xlink" contentScriptType="application/ecmascript" contentStyleType="text/css" height="1226px" preserveAspectRatio="none" style="width:1391px;height:1226px;" version="1.1" viewBox="0 0 1391 1226" width="1391px" zoomAndPan="magnify"><defs><filter height="300%" id="fn2bai38lkczm" width="300%" x="-1" y="-1"><feGaussianBlur result="blurOut" stdDeviation="2.0"/><feColorMatrix in="blurOut" result="blurOut2" type="matrix" values="0 0 0 0 0 0 0 0 0 0 0 0 0 0 0 0 0 0 .4 0"/><feOffset dx="4.0" dy="4.0" in="blurOut2" result="blurOut3"/><feBlend in="SourceGraphic" in2="blurOut3" mode="normal"/></filter></defs><g><!--MD5=[e91c1a4b5acdeea7335b57bbce66c349]
cluster torch.nn--><polygon fill="#FFFFFF" filter="url(#fn2bai38lkczm)" points="454.5,219,527.5,219,534.5,241.2969,564.5,241.2969,564.5,318,454.5,318,454.5,219" style="stroke: #000000; stroke-width: 1.5;"/><line style="stroke: #000000; stroke-width: 1.5;" x1="454.5" x2="534.5" y1="241.2969" y2="241.2969"/><text fill="#000000" font-family="sans-serif" font-size="14" font-weight="bold" lengthAdjust="spacingAndGlyphs" textLength="67" x="458.5" y="233.9951">torch.nn</text><!--MD5=[d0effeaf4b45c1a8bdac76f834e92070]
cluster dr--><polygon fill="#FFFFFF" filter="url(#fn2bai38lkczm)" points="1185.5,1079,1208.5,1079,1215.5,1101.2969,1369.5,1101.2969,1369.5,1178,1185.5,1178,1185.5,1079" style="stroke: #000000; stroke-width: 1.5;"/><line style="stroke: #000000; stroke-width: 1.5;" x1="1185.5" x2="1215.5" y1="1101.2969" y2="1101.2969"/><text fill="#000000" font-family="sans-serif" font-size="14" font-weight="bold" lengthAdjust="spacingAndGlyphs" textLength="17" x="1189.5" y="1093.9951">dr</text><!--MD5=[8c531128956a2ac9024aa8ee044055fe]
class torch.nn.Module--><rect fill="#FEFECE" filter="url(#fn2bai38lkczm)" height="48" id="torch.nn.Module" style="stroke: #A80036; stroke-width: 1.5;" width="77" x="471" y="254"/><ellipse cx="486" cy="270" fill="#ADD1B2" rx="11" ry="11" style="stroke: #A80036; stroke-width: 1.0;"/><path d="M488.9688,275.6406 Q488.3906,275.9375 487.75,276.0781 Q487.1094,276.2344 486.4063,276.2344 Q483.9063,276.2344 482.5781,274.5938 Q481.2656,272.9375 481.2656,269.8125 Q481.2656,266.6875 482.5781,265.0313 Q483.9063,263.375 486.4063,263.375 Q487.1094,263.375 487.75,263.5313 Q488.4063,263.6875 488.9688,263.9844 L488.9688,266.7031 Q488.3438,266.125 487.75,265.8594 Q487.1563,265.5781 486.5313,265.5781 Q485.1875,265.5781 484.5,266.6563 Q483.8125,267.7188 483.8125,269.8125 Q483.8125,271.9063 484.5,272.9844 Q485.1875,274.0469 486.5313,274.0469 Q487.1563,274.0469 487.75,273.7813 Q488.3438,273.5 488.9688,272.9219 L488.9688,275.6406 Z "/><text fill="#000000" font-family="sans-serif" font-size="12" lengthAdjust="spacingAndGlyphs" textLength="45" x="500" y="274.1543">Module</text><line style="stroke: #A80036; stroke-width: 1.5;" x1="472" x2="547" y1="286" y2="286"/><line style="stroke: #A80036; stroke-width: 1.5;" x1="472" x2="547" y1="294" y2="294"/><!--MD5=[649f3eb6c04246143ea7ed3fa8dff3b5]
class dr.RasterizeGLContext--><rect fill="#FEFECE" filter="url(#fn2bai38lkczm)" height="48" id="dr.RasterizeGLContext" style="stroke: #A80036; stroke-width: 1.5;" width="152" x="1201.5" y="1114"/><ellipse cx="1216.5" cy="1130" fill="#ADD1B2" rx="11" ry="11" style="stroke: #A80036; stroke-width: 1.0;"/><path d="M1219.4688,1135.6406 Q1218.8906,1135.9375 1218.25,1136.0781 Q1217.6094,1136.2344 1216.9063,1136.2344 Q1214.4063,1136.2344 1213.0781,1134.5938 Q1211.7656,1132.9375 1211.7656,1129.8125 Q1211.7656,1126.6875 1213.0781,1125.0313 Q1214.4063,1123.375 1216.9063,1123.375 Q1217.6094,1123.375 1218.25,1123.5313 Q1218.9063,1123.6875 1219.4688,1123.9844 L1219.4688,1126.7031 Q1218.8438,1126.125 1218.25,1125.8594 Q1217.6563,1125.5781 1217.0313,1125.5781 Q1215.6875,1125.5781 1215,1126.6563 Q1214.3125,1127.7188 1214.3125,1129.8125 Q1214.3125,1131.9063 1215,1132.9844 Q1215.6875,1134.0469 1217.0313,1134.0469 Q1217.6563,1134.0469 1218.25,1133.7813 Q1218.8438,1133.5 1219.4688,1132.9219 L1219.4688,1135.6406 Z "/><text fill="#000000" font-family="sans-serif" font-size="12" lengthAdjust="spacingAndGlyphs" textLength="120" x="1230.5" y="1134.1543">RasterizeGLContext</text><line style="stroke: #A80036; stroke-width: 1.5;" x1="1202.5" x2="1352.5" y1="1146" y2="1146"/><line style="stroke: #A80036; stroke-width: 1.5;" x1="1202.5" x2="1352.5" y1="1154" y2="1154"/><!--MD5=[3fe0fda86fddc0ed9e61e3c0ed31b106]
class DMTETSynthesisNetwork--><rect fill="#FEFECE" filter="url(#fn2bai38lkczm)" height="521.7734" id="DMTETSynthesisNetwork" style="stroke: #A80036; stroke-width: 1.5;" width="199" x="519" y="494"/><ellipse cx="540.75" cy="510" fill="#ADD1B2" rx="11" ry="11" style="stroke: #A80036; stroke-width: 1.0;"/><path d="M543.7188,515.6406 Q543.1406,515.9375 542.5,516.0781 Q541.8594,516.2344 541.1563,516.2344 Q538.6563,516.2344 537.3281,514.5938 Q536.0156,512.9375 536.0156,509.8125 Q536.0156,506.6875 537.3281,505.0313 Q538.6563,503.375 541.1563,503.375 Q541.8594,503.375 542.5,503.5313 Q543.1563,503.6875 543.7188,503.9844 L543.7188,506.7031 Q543.0938,506.125 542.5,505.8594 Q541.9063,505.5781 541.2813,505.5781 Q539.9375,505.5781 539.25,506.6563 Q538.5625,507.7188 538.5625,509.8125 Q538.5625,511.9063 539.25,512.9844 Q539.9375,514.0469 541.2813,514.0469 Q541.9063,514.0469 542.5,513.7813 Q543.0938,513.5 543.7188,512.9219 L543.7188,515.6406 Z "/><text fill="#000000" font-family="sans-serif" font-size="12" lengthAdjust="spacingAndGlyphs" textLength="152" x="556.25" y="514.1543">DMTETSynthesisNetwork</text><line style="stroke: #A80036; stroke-width: 1.5;" x1="520" x2="717" y1="526" y2="526"/><text fill="#000000" font-family="sans-serif" font-size="11" lengthAdjust="spacingAndGlyphs" textLength="78" x="525" y="540.2104">channels_last</text><text fill="#000000" font-family="sans-serif" font-size="11" lengthAdjust="spacingAndGlyphs" textLength="112" x="525" y="553.0151">data_camera_mode</text><text fill="#000000" font-family="sans-serif" font-size="11" lengthAdjust="spacingAndGlyphs" textLength="128" x="525" y="565.8198">deformation_multiplier</text><text fill="#000000" font-family="sans-serif" font-size="11" lengthAdjust="spacingAndGlyphs" textLength="36" x="525" y="578.6245">device</text><text fill="#000000" font-family="sans-serif" font-size="11" lengthAdjust="spacingAndGlyphs" textLength="93" x="525" y="591.4292">dmtet_geometry</text><text fill="#000000" font-family="sans-serif" font-size="11" lengthAdjust="spacingAndGlyphs" textLength="69" x="525" y="604.2339">dmtet_scale</text><text fill="#000000" font-family="sans-serif" font-size="11" lengthAdjust="spacingAndGlyphs" textLength="72" x="525" y="617.0386">feat_channel</text><text fill="#000000" font-family="sans-serif" font-size="11" lengthAdjust="spacingAndGlyphs" textLength="56" x="525" y="629.8433">generator</text><text fill="#000000" font-family="sans-serif" font-size="11" lengthAdjust="spacingAndGlyphs" textLength="139" x="525" y="642.6479">geometry_synthesis_def</text><text fill="#000000" font-family="sans-serif" font-size="11" lengthAdjust="spacingAndGlyphs" textLength="139" x="525" y="655.4526">geometry_synthesis_sdf</text><text fill="#000000" font-family="sans-serif" font-size="11" lengthAdjust="spacingAndGlyphs" textLength="138" x="525" y="668.2573">geometry_synthesis_tex</text><text fill="#000000" font-family="sans-serif" font-size="11" lengthAdjust="spacingAndGlyphs" textLength="84" x="525" y="681.062">geometry_type</text><text fill="#000000" font-family="sans-serif" font-size="11" lengthAdjust="spacingAndGlyphs" textLength="26" x="525" y="693.8667">glctx</text><text fill="#000000" font-family="sans-serif" font-size="11" lengthAdjust="spacingAndGlyphs" textLength="47" x="525" y="706.6714">grid_res</text><text fill="#000000" font-family="sans-serif" font-size="11" lengthAdjust="spacingAndGlyphs" textLength="78" x="525" y="719.4761">img_channels</text><text fill="#000000" font-family="sans-serif" font-size="11" lengthAdjust="spacingAndGlyphs" textLength="84" x="525" y="732.2808">img_resolution</text><text fill="#000000" font-family="sans-serif" font-size="11" lengthAdjust="spacingAndGlyphs" textLength="128" x="525" y="745.0854">inference_noise_mode</text><text fill="#000000" font-family="sans-serif" font-size="11" lengthAdjust="spacingAndGlyphs" textLength="66" x="525" y="757.8901">iso_surface</text><text fill="#000000" font-family="sans-serif" font-size="11" lengthAdjust="spacingAndGlyphs" textLength="109" x="525" y="770.6948">mlp_latent_channel</text><text fill="#000000" font-family="sans-serif" font-size="11" lengthAdjust="spacingAndGlyphs" textLength="110" x="525" y="783.4995">n_freq_posenc_geo</text><text fill="#000000" font-family="sans-serif" font-size="11" lengthAdjust="spacingAndGlyphs" textLength="45" x="525" y="796.3042">n_views</text><text fill="#000000" font-family="sans-serif" font-size="11" lengthAdjust="spacingAndGlyphs" textLength="103" x="525" y="809.1089">one_3d_generator</text><text fill="#000000" font-family="sans-serif" font-size="11" lengthAdjust="spacingAndGlyphs" textLength="68" x="525" y="821.9136">render_type</text><text fill="#000000" font-family="sans-serif" font-size="11" lengthAdjust="spacingAndGlyphs" textLength="36" x="525" y="834.7183">to_rgb</text><text fill="#000000" font-family="sans-serif" font-size="11" lengthAdjust="spacingAndGlyphs" textLength="76" x="525" y="847.5229">use_tri_plane</text><text fill="#000000" font-family="sans-serif" font-size="11" lengthAdjust="spacingAndGlyphs" textLength="36" x="525" y="860.3276">w_dim</text><line style="stroke: #A80036; stroke-width: 1.5;" x1="520" x2="717" y1="866.9219" y2="866.9219"/><text fill="#000000" font-family="sans-serif" font-size="11" lengthAdjust="spacingAndGlyphs" textLength="49" x="525" y="881.1323">__init__()</text><text fill="#000000" font-family="sans-serif" font-size="11" lengthAdjust="spacingAndGlyphs" textLength="108" x="525" y="893.937">extract_3d_shape()</text><text fill="#000000" font-family="sans-serif" font-size="11" lengthAdjust="spacingAndGlyphs" textLength="52" x="525" y="906.7417">forward()</text><text fill="#000000" font-family="sans-serif" font-size="11" lengthAdjust="spacingAndGlyphs" textLength="59" x="525" y="919.5464">generate()</text><text fill="#000000" font-family="sans-serif" font-size="11" lengthAdjust="spacingAndGlyphs" textLength="158" x="525" y="932.3511">generate_random_camera()</text><text fill="#000000" font-family="sans-serif" font-size="11" lengthAdjust="spacingAndGlyphs" textLength="171" x="525" y="945.1558">generate_rotate_camera_list()</text><text fill="#000000" font-family="sans-serif" font-size="11" lengthAdjust="spacingAndGlyphs" textLength="148" x="525" y="957.9604">get_geometry_prediction()</text><text fill="#000000" font-family="sans-serif" font-size="11" lengthAdjust="spacingAndGlyphs" textLength="187" x="525" y="970.7651">get_sdf_deformation_prediction()</text><text fill="#000000" font-family="sans-serif" font-size="11" lengthAdjust="spacingAndGlyphs" textLength="134" x="525" y="983.5698">get_texture_prediction()</text><text fill="#000000" font-family="sans-serif" font-size="11" lengthAdjust="spacingAndGlyphs" textLength="84" x="525" y="996.3745">render_mesh()</text><text fill="#000000" font-family="sans-serif" font-size="11" lengthAdjust="spacingAndGlyphs" textLength="106" x="525" y="1009.1792">transform_points()</text><!--MD5=[bbfb5958e7335e5eb87903b317558e3d]
class DMTetGeometry--><rect fill="#FEFECE" filter="url(#fn2bai38lkczm)" height="48" id="DMTetGeometry" style="stroke: #A80036; stroke-width: 1.5;" width="131" x="6" y="1114"/><ellipse cx="21" cy="1130" fill="#ADD1B2" rx="11" ry="11" style="stroke: #A80036; stroke-width: 1.0;"/><path d="M23.9688,1135.6406 Q23.3906,1135.9375 22.75,1136.0781 Q22.1094,1136.2344 21.4063,1136.2344 Q18.9063,1136.2344 17.5781,1134.5938 Q16.2656,1132.9375 16.2656,1129.8125 Q16.2656,1126.6875 17.5781,1125.0313 Q18.9063,1123.375 21.4063,1123.375 Q22.1094,1123.375 22.75,1123.5313 Q23.4063,1123.6875 23.9688,1123.9844 L23.9688,1126.7031 Q23.3438,1126.125 22.75,1125.8594 Q22.1563,1125.5781 21.5313,1125.5781 Q20.1875,1125.5781 19.5,1126.6563 Q18.8125,1127.7188 18.8125,1129.8125 Q18.8125,1131.9063 19.5,1132.9844 Q20.1875,1134.0469 21.5313,1134.0469 Q22.1563,1134.0469 22.75,1133.7813 Q23.3438,1133.5 23.9688,1132.9219 L23.9688,1135.6406 Z "/><text fill="#000000" font-family="sans-serif" font-size="12" lengthAdjust="spacingAndGlyphs" textLength="99" x="35" y="1134.1543">DMTetGeometry</text><line style="stroke: #A80036; stroke-width: 1.5;" x1="7" x2="136" y1="1146" y2="1146"/><line style="stroke: #A80036; stroke-width: 1.5;" x1="7" x2="136" y1="1154" y2="1154"/><!--MD5=[95a7707b48d2ba2a26052bb9af68f199]
class FlexiCubesGeometry--><rect fill="#FEFECE" filter="url(#fn2bai38lkczm)" height="48" id="FlexiCubesGeometry" style="stroke: #A80036; stroke-width: 1.5;" width="158" x="172.5" y="1114"/><ellipse cx="187.5" cy="1130" fill="#ADD1B2" rx="11" ry="11" style="stroke: #A80036; stroke-width: 1.0;"/><path d="M190.4688,1135.6406 Q189.8906,1135.9375 189.25,1136.0781 Q188.6094,1136.2344 187.9063,1136.2344 Q185.4063,1136.2344 184.0781,1134.5938 Q182.7656,1132.9375 182.7656,1129.8125 Q182.7656,1126.6875 184.0781,1125.0313 Q185.4063,1123.375 187.9063,1123.375 Q188.6094,1123.375 189.25,1123.5313 Q189.9063,1123.6875 190.4688,1123.9844 L190.4688,1126.7031 Q189.8438,1126.125 189.25,1125.8594 Q188.6563,1125.5781 188.0313,1125.5781 Q186.6875,1125.5781 186,1126.6563 Q185.3125,1127.7188 185.3125,1129.8125 Q185.3125,1131.9063 186,1132.9844 Q186.6875,1134.0469 188.0313,1134.0469 Q188.6563,1134.0469 189.25,1133.7813 Q189.8438,1133.5 190.4688,1132.9219 L190.4688,1135.6406 Z "/><text fill="#000000" font-family="sans-serif" font-size="12" lengthAdjust="spacingAndGlyphs" textLength="126" x="201.5" y="1134.1543">FlexiCubesGeometry</text><line style="stroke: #A80036; stroke-width: 1.5;" x1="173.5" x2="329.5" y1="1146" y2="1146"/><line style="stroke: #A80036; stroke-width: 1.5;" x1="173.5" x2="329.5" y1="1154" y2="1154"/><!--MD5=[aa146a2b40eb815d838b528068bc0ede]
class TriPlaneTexGeo--><rect fill="#FEFECE" filter="url(#fn2bai38lkczm)" height="48" id="TriPlaneTexGeo" style="stroke: #A80036; stroke-width: 1.5;" width="128" x="365.5" y="1114"/><ellipse cx="380.5" cy="1130" fill="#ADD1B2" rx="11" ry="11" style="stroke: #A80036; stroke-width: 1.0;"/><path d="M383.4688,1135.6406 Q382.8906,1135.9375 382.25,1136.0781 Q381.6094,1136.2344 380.9063,1136.2344 Q378.4063,1136.2344 377.0781,1134.5938 Q375.7656,1132.9375 375.7656,1129.8125 Q375.7656,1126.6875 377.0781,1125.0313 Q378.4063,1123.375 380.9063,1123.375 Q381.6094,1123.375 382.25,1123.5313 Q382.9063,1123.6875 383.4688,1123.9844 L383.4688,1126.7031 Q382.8438,1126.125 382.25,1125.8594 Q381.6563,1125.5781 381.0313,1125.5781 Q379.6875,1125.5781 379,1126.6563 Q378.3125,1127.7188 378.3125,1129.8125 Q378.3125,1131.9063 379,1132.9844 Q379.6875,1134.0469 381.0313,1134.0469 Q381.6563,1134.0469 382.25,1133.7813 Q382.8438,1133.5 383.4688,1132.9219 L383.4688,1135.6406 Z "/><text fill="#000000" font-family="sans-serif" font-size="12" lengthAdjust="spacingAndGlyphs" textLength="96" x="394.5" y="1134.1543">TriPlaneTexGeo</text><line style="stroke: #A80036; stroke-width: 1.5;" x1="366.5" x2="492.5" y1="1146" y2="1146"/><line style="stroke: #A80036; stroke-width: 1.5;" x1="366.5" x2="492.5" y1="1154" y2="1154"/><!--MD5=[19a7f5364efb8e7badbcd95f943cc30d]
class Conv3DImplicitSynthesisNetwork--><rect fill="#FEFECE" filter="url(#fn2bai38lkczm)" height="48" id="Conv3DImplicitSynthesisNetwork" style="stroke: #A80036; stroke-width: 1.5;" width="233" x="555" y="1114"/><ellipse cx="570" cy="1130" fill="#ADD1B2" rx="11" ry="11" style="stroke: #A80036; stroke-width: 1.0;"/><path d="M572.9688,1135.6406 Q572.3906,1135.9375 571.75,1136.0781 Q571.1094,1136.2344 570.4063,1136.2344 Q567.9063,1136.2344 566.5781,1134.5938 Q565.2656,1132.9375 565.2656,1129.8125 Q565.2656,1126.6875 566.5781,1125.0313 Q567.9063,1123.375 570.4063,1123.375 Q571.1094,1123.375 571.75,1123.5313 Q572.4063,1123.6875 572.9688,1123.9844 L572.9688,1126.7031 Q572.3438,1126.125 571.75,1125.8594 Q571.1563,1125.5781 570.5313,1125.5781 Q569.1875,1125.5781 568.5,1126.6563 Q567.8125,1127.7188 567.8125,1129.8125 Q567.8125,1131.9063 568.5,1132.9844 Q569.1875,1134.0469 570.5313,1134.0469 Q571.1563,1134.0469 571.75,1133.7813 Q572.3438,1133.5 572.9688,1132.9219 L572.9688,1135.6406 Z "/><text fill="#000000" font-family="sans-serif" font-size="12" lengthAdjust="spacingAndGlyphs" textLength="201" x="584" y="1134.1543">Conv3DImplicitSynthesisNetwork</text><line style="stroke: #A80036; stroke-width: 1.5;" x1="556" x2="787" y1="1146" y2="1146"/><line style="stroke: #A80036; stroke-width: 1.5;" x1="556" x2="787" y1="1154" y2="1154"/><!--MD5=[69b9589be6cd1e61aa7b05abf6d65c39]
class TriPlaneTex--><rect fill="#FEFECE" filter="url(#fn2bai38lkczm)" height="48" id="TriPlaneTex" style="stroke: #A80036; stroke-width: 1.5;" width="103" x="864" y="1114"/><ellipse cx="879" cy="1130" fill="#ADD1B2" rx="11" ry="11" style="stroke: #A80036; stroke-width: 1.0;"/><path d="M881.9688,1135.6406 Q881.3906,1135.9375 880.75,1136.0781 Q880.1094,1136.2344 879.4063,1136.2344 Q876.9063,1136.2344 875.5781,1134.5938 Q874.2656,1132.9375 874.2656,1129.8125 Q874.2656,1126.6875 875.5781,1125.0313 Q876.9063,1123.375 879.4063,1123.375 Q880.1094,1123.375 880.75,1123.5313 Q881.4063,1123.6875 881.9688,1123.9844 L881.9688,1126.7031 Q881.3438,1126.125 880.75,1125.8594 Q880.1563,1125.5781 879.5313,1125.5781 Q878.1875,1125.5781 877.5,1126.6563 Q876.8125,1127.7188 876.8125,1129.8125 Q876.8125,1131.9063 877.5,1132.9844 Q878.1875,1134.0469 879.5313,1134.0469 Q880.1563,1134.0469 880.75,1133.7813 Q881.3438,1133.5 881.9688,1132.9219 L881.9688,1135.6406 Z "/><text fill="#000000" font-family="sans-serif" font-size="12" lengthAdjust="spacingAndGlyphs" textLength="71" x="893" y="1134.1543">TriPlaneTex</text><line style="stroke: #A80036; stroke-width: 1.5;" x1="865" x2="966" y1="1146" y2="1146"/><line style="stroke: #A80036; stroke-width: 1.5;" x1="865" x2="966" y1="1154" y2="1154"/><!--MD5=[d6ccdcf0a61013fd736e860537eda334]
class ToRGBLayer--><rect fill="#FEFECE" filter="url(#fn2bai38lkczm)" height="48" id="ToRGBLayer" style="stroke: #A80036; stroke-width: 1.5;" width="105" x="1061" y="1114"/><ellipse cx="1076" cy="1130" fill="#ADD1B2" rx="11" ry="11" style="stroke: #A80036; stroke-width: 1.0;"/><path d="M1078.9688,1135.6406 Q1078.3906,1135.9375 1077.75,1136.0781 Q1077.1094,1136.2344 1076.4063,1136.2344 Q1073.9063,1136.2344 1072.5781,1134.5938 Q1071.2656,1132.9375 1071.2656,1129.8125 Q1071.2656,1126.6875 1072.5781,1125.0313 Q1073.9063,1123.375 1076.4063,1123.375 Q1077.1094,1123.375 1077.75,1123.5313 Q1078.4063,1123.6875 1078.9688,1123.9844 L1078.9688,1126.7031 Q1078.3438,1126.125 1077.75,1125.8594 Q1077.1563,1125.5781 1076.5313,1125.5781 Q1075.1875,1125.5781 1074.5,1126.6563 Q1073.8125,1127.7188 1073.8125,1129.8125 Q1073.8125,1131.9063 1074.5,1132.9844 Q1075.1875,1134.0469 1076.5313,1134.0469 Q1077.1563,1134.0469 1077.75,1133.7813 Q1078.3438,1133.5 1078.9688,1132.9219 L1078.9688,1135.6406 Z "/><text fill="#000000" font-family="sans-serif" font-size="12" lengthAdjust="spacingAndGlyphs" textLength="73" x="1090" y="1134.1543">ToRGBLayer</text><line style="stroke: #A80036; stroke-width: 1.5;" x1="1062" x2="1165" y1="1146" y2="1146"/><line style="stroke: #A80036; stroke-width: 1.5;" x1="1062" x2="1165" y1="1154" y2="1154"/><!--MD5=[e58921626741263c3115115c912cf94c]
class GeneratorDMTETMesh--><rect fill="#FEFECE" filter="url(#fn2bai38lkczm)" height="278.4844" id="GeneratorDMTETMesh" style="stroke: #A80036; stroke-width: 1.5;" width="170" x="722.5" y="139"/><ellipse cx="737.5" cy="155" fill="#ADD1B2" rx="11" ry="11" style="stroke: #A80036; stroke-width: 1.0;"/><path d="M740.4688,160.6406 Q739.8906,160.9375 739.25,161.0781 Q738.6094,161.2344 737.9063,161.2344 Q735.4063,161.2344 734.0781,159.5938 Q732.7656,157.9375 732.7656,154.8125 Q732.7656,151.6875 734.0781,150.0313 Q735.4063,148.375 737.9063,148.375 Q738.6094,148.375 739.25,148.5313 Q739.9063,148.6875 740.4688,148.9844 L740.4688,151.7031 Q739.8438,151.125 739.25,150.8594 Q738.6563,150.5781 738.0313,150.5781 Q736.6875,150.5781 736,151.6563 Q735.3125,152.7188 735.3125,154.8125 Q735.3125,156.9063 736,157.9844 Q736.6875,159.0469 738.0313,159.0469 Q738.6563,159.0469 739.25,158.7813 Q739.8438,158.5 740.4688,157.9219 L740.4688,160.6406 Z "/><text fill="#000000" font-family="sans-serif" font-size="12" lengthAdjust="spacingAndGlyphs" textLength="138" x="751.5" y="159.1543">GeneratorDMTETMesh</text><line style="stroke: #A80036; stroke-width: 1.5;" x1="723.5" x2="891.5" y1="171" y2="171"/><text fill="#000000" font-family="sans-serif" font-size="11" lengthAdjust="spacingAndGlyphs" textLength="33" x="728.5" y="185.2104">c_dim</text><text fill="#000000" font-family="sans-serif" font-size="11" lengthAdjust="spacingAndGlyphs" textLength="36" x="728.5" y="198.0151">device</text><text fill="#000000" font-family="sans-serif" font-size="11" lengthAdjust="spacingAndGlyphs" textLength="78" x="728.5" y="210.8198">img_channels</text><text fill="#000000" font-family="sans-serif" font-size="11" lengthAdjust="spacingAndGlyphs" textLength="84" x="728.5" y="223.6245">img_resolution</text><text fill="#000000" font-family="sans-serif" font-size="11" lengthAdjust="spacingAndGlyphs" textLength="49" x="728.5" y="236.4292">mapping</text><text fill="#000000" font-family="sans-serif" font-size="11" lengthAdjust="spacingAndGlyphs" textLength="76" x="728.5" y="249.2339">mapping_geo</text><text fill="#000000" font-family="sans-serif" font-size="11" lengthAdjust="spacingAndGlyphs" textLength="47" x="728.5" y="262.0386">num_ws</text><text fill="#000000" font-family="sans-serif" font-size="11" lengthAdjust="spacingAndGlyphs" textLength="74" x="728.5" y="274.8433">num_ws_geo</text><text fill="#000000" font-family="sans-serif" font-size="11" lengthAdjust="spacingAndGlyphs" textLength="102" x="728.5" y="287.6479">style_mixing_prob</text><text fill="#000000" font-family="sans-serif" font-size="11" lengthAdjust="spacingAndGlyphs" textLength="55" x="728.5" y="300.4526">synthesis</text><text fill="#000000" font-family="sans-serif" font-size="11" lengthAdjust="spacingAndGlyphs" textLength="97" x="728.5" y="313.2573">use_style_mixing</text><text fill="#000000" font-family="sans-serif" font-size="11" lengthAdjust="spacingAndGlyphs" textLength="36" x="728.5" y="326.062">w_dim</text><text fill="#000000" font-family="sans-serif" font-size="11" lengthAdjust="spacingAndGlyphs" textLength="32" x="728.5" y="338.8667">z_dim</text><line style="stroke: #A80036; stroke-width: 1.5;" x1="723.5" x2="891.5" y1="345.4609" y2="345.4609"/><text fill="#000000" font-family="sans-serif" font-size="11" lengthAdjust="spacingAndGlyphs" textLength="49" x="728.5" y="359.6714">__init__()</text><text fill="#000000" font-family="sans-serif" font-size="11" lengthAdjust="spacingAndGlyphs" textLength="52" x="728.5" y="372.4761">forward()</text><text fill="#000000" font-family="sans-serif" font-size="11" lengthAdjust="spacingAndGlyphs" textLength="79" x="728.5" y="385.2808">generate_3d()</text><text fill="#000000" font-family="sans-serif" font-size="11" lengthAdjust="spacingAndGlyphs" textLength="117" x="728.5" y="398.0854">generate_3d_mesh()</text><text fill="#000000" font-family="sans-serif" font-size="11" lengthAdjust="spacingAndGlyphs" textLength="88" x="728.5" y="410.8901">update_w_avg()</text><!--MD5=[56700a0daa554d1e0dddd70f8483f458]
class MappingNetwork--><rect fill="#FEFECE" filter="url(#fn2bai38lkczm)" height="48" id="MappingNetwork" style="stroke: #A80036; stroke-width: 1.5;" width="136" x="791.5" y="731"/><ellipse cx="806.5" cy="747" fill="#ADD1B2" rx="11" ry="11" style="stroke: #A80036; stroke-width: 1.0;"/><path d="M809.4688,752.6406 Q808.8906,752.9375 808.25,753.0781 Q807.6094,753.2344 806.9063,753.2344 Q804.4063,753.2344 803.0781,751.5938 Q801.7656,749.9375 801.7656,746.8125 Q801.7656,743.6875 803.0781,742.0313 Q804.4063,740.375 806.9063,740.375 Q807.6094,740.375 808.25,740.5313 Q808.9063,740.6875 809.4688,740.9844 L809.4688,743.7031 Q808.8438,743.125 808.25,742.8594 Q807.6563,742.5781 807.0313,742.5781 Q805.6875,742.5781 805,743.6563 Q804.3125,744.7188 804.3125,746.8125 Q804.3125,748.9063 805,749.9844 Q805.6875,751.0469 807.0313,751.0469 Q807.6563,751.0469 808.25,750.7813 Q808.8438,750.5 809.4688,749.9219 L809.4688,752.6406 Z "/><text fill="#000000" font-family="sans-serif" font-size="12" lengthAdjust="spacingAndGlyphs" textLength="104" x="820.5" y="751.1543">MappingNetwork</text><line style="stroke: #A80036; stroke-width: 1.5;" x1="792.5" x2="926.5" y1="763" y2="763"/><line style="stroke: #A80036; stroke-width: 1.5;" x1="792.5" x2="926.5" y1="771" y2="771"/><!--MD5=[335f504830969842b310ac8b89aea608]
class networks_get3d_py--><rect fill="#8FBC8F" filter="url(#fn2bai38lkczm)" height="53.9375" id="networks_get3d_py" style="stroke: #A80036; stroke-width: 1.5;" width="152" x="571.5" y="8"/><ellipse cx="586.5" cy="26.9688" fill="#DA70D6" rx="11" ry="11" style="stroke: #A80036; stroke-width: 1.0;"/><path d="M582.2188,20.5781 L585.1406,20.5781 L586.6094,26.0156 L588.0781,20.5781 L591.0156,20.5781 L591.0156,32.9688 L588.9063,32.9688 L588.9063,23.0469 L587.5938,28.4688 L585.6563,28.4688 L584.3281,23.0469 L584.3281,32.9688 L582.2188,32.9688 L582.2188,20.5781 Z "/><text fill="#000000" font-family="sans-serif" font-size="12" font-style="italic" lengthAdjust="spacingAndGlyphs" textLength="60" x="630.5" y="24.1387">«module»</text><text fill="#000000" font-family="sans-serif" font-size="12" lengthAdjust="spacingAndGlyphs" textLength="120" x="600.5" y="38.1074">networks_get3d_py</text><line style="stroke: #A80036; stroke-width: 1.5;" x1="572.5" x2="722.5" y1="45.9375" y2="45.9375"/><line style="stroke: #A80036; stroke-width: 1.5;" x1="572.5" x2="722.5" y1="53.9375" y2="53.9375"/><!--MD5=[51f1069cfe2e814b14721d7f92352f9d]
reverse link torch.nn.Module to DMTETSynthesisNetwork--><path d="M519.35,321.93 C528.67,362.53 543.47,427.05 558.83,493.98 " fill="none" id="torch.nn.Module&lt;-DMTETSynthesisNetwork" style="stroke: #A80036; stroke-width: 1.0;"/><polygon fill="none" points="512.48,323.29,514.83,302.23,526.13,320.16,512.48,323.29" style="stroke: #A80036; stroke-width: 1.0;"/><!--MD5=[3e718dea6db3ad78d2bcd096b8889b1e]
link DMTETSynthesisNetwork to DMTetGeometry--><path d="M508.6215,824.781 C508.6215,824.781 290.2,966.34 182.5,1046 C157.13,1064.76 129.71,1087.22 108.46,1105.14 " fill="none" id="DMTETSynthesisNetwork-DMTetGeometry" style="stroke: #A80036; stroke-width: 1.0;"/><polygon fill="#A80036" points="98.27,1113.79,107.7225,1111.024,102.0848,1110.5578,102.551,1104.9202,98.27,1113.79" style="stroke: #A80036; stroke-width: 1.0;"/><line style="stroke: #A80036; stroke-width: 1.0;" x1="102.0848" x2="108.18" y1="1110.5578" y2="1105.38"/><polygon fill="#A80036" points="518.74,818.33,511.5304,818.1827,508.6215,824.781,515.8311,824.9284,518.74,818.33" style="stroke: #A80036; stroke-width: 1.0;"/><text fill="#000000" font-family="sans-serif" font-size="13" lengthAdjust="spacingAndGlyphs" textLength="108" x="183.5" y="1059.0669">dmtet_geometry</text><!--MD5=[c16b45e2be7f1f6c7df07d50d0b358f7]
link DMTETSynthesisNetwork to FlexiCubesGeometry--><path d="M509.9195,848.9142 C509.9195,848.9142 373.22,975.72 313.5,1046 C298.44,1063.72 283.7,1085.15 272.36,1102.76 " fill="none" id="DMTETSynthesisNetwork-FlexiCubesGeometry" style="stroke: #A80036; stroke-width: 1.0;"/><polygon fill="#A80036" points="265.27,1113.97,273.4614,1108.5018,267.9426,1109.7443,266.7002,1104.2255,265.27,1113.97" style="stroke: #A80036; stroke-width: 1.0;"/><line style="stroke: #A80036; stroke-width: 1.0;" x1="267.9426" x2="272.22" y1="1109.7443" y2="1102.985"/><polygon fill="#A80036" points="518.86,840.91,511.7217,841.932,509.9195,848.9142,517.0578,847.8923,518.86,840.91" style="stroke: #A80036; stroke-width: 1.0;"/><text fill="#000000" font-family="sans-serif" font-size="13" lengthAdjust="spacingAndGlyphs" textLength="108" x="314.5" y="1059.0669">dmtet_geometry</text><!--MD5=[3246e72a7dbfebf4e163ce5c06a9d8e3]
link DMTETSynthesisNetwork to dr.RasterizeGLContext--><path d="M726.1886,975.01 C726.1886,975.01 756.96,1004.99 774.5,1016 C836.87,1055.15 1032.31,1031.47 1104.5,1046 C1140.6,1053.26 1150.49,1054.67 1183.5,1071 C1202.67,1080.48 1222.28,1093.6 1238.59,1105.65 " fill="none" id="DMTETSynthesisNetwork-dr.RasterizeGLContext" style="stroke: #A80036; stroke-width: 1.0;"/><polygon fill="#A80036" points="1249.31,1113.76,1244.5441,1105.1411,1245.3219,1110.7442,1239.7188,1111.522,1249.31,1113.76" style="stroke: #A80036; stroke-width: 1.0;"/><line style="stroke: #A80036; stroke-width: 1.0;" x1="1245.3219" x2="1238.945" y1="1110.7442" y2="1105.92"/><polygon fill="#A80036" points="718.24,966.02,719.2176,973.1645,726.1886,975.01,725.211,967.8654,718.24,966.02" style="stroke: #A80036; stroke-width: 1.0;"/><text fill="#000000" font-family="sans-serif" font-size="13" lengthAdjust="spacingAndGlyphs" textLength="108" x="1166.5" y="1059.0669">dmtet_geometry</text><!--MD5=[ad300e40cf76db562fcab69ea682d8c0]
link DMTETSynthesisNetwork to TriPlaneTexGeo--><path d="M512.2891,894.9711 C512.2891,894.9711 453.7,993.85 436.5,1046 C430.73,1063.49 428.76,1083.85 428.32,1100.87 " fill="none" id="DMTETSynthesisNetwork-TriPlaneTexGeo" style="stroke: #A80036; stroke-width: 1.0;"/><polygon fill="#A80036" points="428.26,1113.97,432.2995,1104.9877,428.282,1108.97,424.2996,1104.9525,428.26,1113.97" style="stroke: #A80036; stroke-width: 1.0;"/><line style="stroke: #A80036; stroke-width: 1.0;" x1="428.282" x2="428.32" y1="1108.97" y2="1100.97"/><polygon fill="#A80036" points="518.86,884.93,512.2275,887.7602,512.2891,894.9711,518.9216,892.1408,518.86,884.93" style="stroke: #A80036; stroke-width: 1.0;"/><text fill="#000000" font-family="sans-serif" font-size="13" lengthAdjust="spacingAndGlyphs" textLength="63" x="437.5" y="1059.0669">generator</text><!--MD5=[c1b3542705ec3d024627b619c7883d9f]
link DMTETSynthesisNetwork to Conv3DImplicitSynthesisNetwork--><path d="M514.4374,916.1153 C514.4374,916.1153 489.7,1018.79 517.5,1063 C530.03,1082.91 549.57,1097.59 570.59,1108.37 " fill="none" id="DMTETSynthesisNetwork-Conv3DImplicitSynthesisNetwork" style="stroke: #A80036; stroke-width: 1.0;"/><polygon fill="#A80036" points="582.38,1113.96,575.9634,1106.4882,577.8627,1111.8167,572.5342,1113.716,582.38,1113.96" style="stroke: #A80036; stroke-width: 1.0;"/><line style="stroke: #A80036; stroke-width: 1.0;" x1="577.8627" x2="570.63" y1="1111.8167" y2="1108.39"/><polygon fill="#A80036" points="518.91,904.98,512.9619,909.0568,514.4374,916.1153,520.3855,912.0385,518.91,904.98" style="stroke: #A80036; stroke-width: 1.0;"/><text fill="#000000" font-family="sans-serif" font-size="13" lengthAdjust="spacingAndGlyphs" textLength="155" x="518.5" y="1059.0669">geometry_synthesis_sdf</text><!--MD5=[c1b3542705ec3d024627b619c7883d9f]
link DMTETSynthesisNetwork to Conv3DImplicitSynthesisNetwork--><path d="M676.4676,1027.9736 C676.4676,1027.9736 677.93,1040.46 678.5,1046 C680.34,1063.98 679.15,1084 677.27,1100.68 " fill="none" id="DMTETSynthesisNetwork-Conv3DImplicitSynthesisNetwork-1" style="stroke: #A80036; stroke-width: 1.0;"/><polygon fill="#A80036" points="675.57,1113.78,680.6853,1105.3637,676.2078,1108.8208,672.7506,1104.3433,675.57,1113.78" style="stroke: #A80036; stroke-width: 1.0;"/><line style="stroke: #A80036; stroke-width: 1.0;" x1="676.2078" x2="677.24" y1="1108.8208" y2="1100.89"/><polygon fill="#A80036" points="674.95,1016.07,671.7409,1022.5277,676.4676,1027.9736,679.6767,1021.5159,674.95,1016.07" style="stroke: #A80036; stroke-width: 1.0;"/><text fill="#000000" font-family="sans-serif" font-size="13" lengthAdjust="spacingAndGlyphs" textLength="156" x="679.5" y="1059.0669">geometry_synthesis_def</text><!--MD5=[10983d7e2d0a48ba355bb48a119f3760]
link DMTETSynthesisNetwork to TriPlaneTex--><path d="M725.2548,962.8189 C725.2548,962.8189 756.85,1000.59 774.5,1016 C800,1038.26 817.69,1025.34 844.5,1046 C864.61,1061.5 882.21,1083.95 894.85,1102.67 " fill="none" id="DMTETSynthesisNetwork-TriPlaneTex" style="stroke: #A80036; stroke-width: 1.0;"/><polygon fill="#A80036" points="902.06,1113.75,900.5026,1104.0251,899.3324,1109.5595,893.7979,1108.3893,902.06,1113.75" style="stroke: #A80036; stroke-width: 1.0;"/><line style="stroke: #A80036; stroke-width: 1.0;" x1="899.3324" x2="894.97" y1="1109.5595" y2="1102.85"/><polygon fill="#A80036" points="718.04,953.23,718.4511,960.4294,725.2548,962.8189,724.8437,955.6195,718.04,953.23" style="stroke: #A80036; stroke-width: 1.0;"/><text fill="#000000" font-family="sans-serif" font-size="13" lengthAdjust="spacingAndGlyphs" textLength="156" x="863.5" y="1059.0669">geometry_synthesis_tex</text><!--MD5=[81e9fb533e0573a03001d310eb95fab9]
link DMTETSynthesisNetwork to ToRGBLayer--><path d="M725.9512,973.8878 C725.9512,973.8878 756.93,1004.64 774.5,1016 C869.96,1077.72 927.08,994.67 1028.5,1046 C1054.21,1059.01 1076.2,1083.15 1091.36,1103.3 " fill="none" id="DMTETSynthesisNetwork-ToRGBLayer" style="stroke: #A80036; stroke-width: 1.0;"/><polygon fill="#A80036" points="1099.07,1113.98,1097.0519,1104.3401,1096.1462,1109.924,1090.5623,1109.0183,1099.07,1113.98" style="stroke: #A80036; stroke-width: 1.0;"/><line style="stroke: #A80036; stroke-width: 1.0;" x1="1096.1462" x2="1091.46" y1="1109.924" y2="1103.44"/><polygon fill="#A80036" points="718.08,964.83,718.9963,971.9826,725.9512,973.8878,725.0349,966.7352,718.08,964.83" style="stroke: #A80036; stroke-width: 1.0;"/><text fill="#000000" font-family="sans-serif" font-size="13" lengthAdjust="spacingAndGlyphs" textLength="41" x="1054.5" y="1059.0669">to_rgb</text><!--MD5=[f2e6a16c4e0749d04cf537b6b5da794d]
reverse link torch.nn.Module to GeneratorDMTETMesh--><path d="M516.58,233.84 C525.98,191.43 547.11,129.63 593,100.5 C624.9,80.26 644.32,83.38 678,100.5 C696.53,109.92 713.04,123.37 727.55,138.72 " fill="none" id="torch.nn.Module&lt;-GeneratorDMTETMesh" style="stroke: #A80036; stroke-width: 1.0;"/><polygon fill="none" points="523.41,235.41,512.71,253.7,509.67,232.73,523.41,235.41" style="stroke: #A80036; stroke-width: 1.0;"/><!--MD5=[29d7b7158499f1277c6180cc9bd2ed69]
link GeneratorDMTETMesh to DMTETSynthesisNetwork--><path d="M733.519,428.2625 C733.519,428.2625 727.91,441.22 725.5,447 C720.79,458.31 716.11,469.91 711.48,481.67 " fill="none" id="GeneratorDMTETMesh-DMTETSynthesisNetwork" style="stroke: #A80036; stroke-width: 1.0;"/><polygon fill="#A80036" points="706.69,493.98,713.6887,487.0505,708.5081,489.3222,706.2363,484.1416,706.69,493.98" style="stroke: #A80036; stroke-width: 1.0;"/><line style="stroke: #A80036; stroke-width: 1.0;" x1="708.5081" x2="711.41" y1="489.3222" y2="481.865"/><polygon fill="#A80036" points="738.4,417.3,732.3053,421.1542,733.519,428.2625,739.6137,424.4082,738.4,417.3" style="stroke: #A80036; stroke-width: 1.0;"/><text fill="#000000" font-family="sans-serif" font-size="13" lengthAdjust="spacingAndGlyphs" textLength="60" x="726.5" y="460.0669">synthesis</text><!--MD5=[8b551108d892b3db74c6af13fbc3e1a5]
link GeneratorDMTETMesh to MappingNetwork--><path d="M797.1793,429.3878 C797.1793,429.3878 796.68,441.58 796.5,447 C793.23,546.93 827.12,661.59 846.5,718.34 " fill="none" id="GeneratorDMTETMesh-MappingNetwork" style="stroke: #A80036; stroke-width: 1.0;"/><polygon fill="#A80036" points="850.86,730.83,851.6826,721.0156,849.218,726.1073,844.1263,723.6427,850.86,730.83" style="stroke: #A80036; stroke-width: 1.0;"/><line style="stroke: #A80036; stroke-width: 1.0;" x1="849.218" x2="846.58" y1="726.1073" y2="718.555"/><polygon fill="#A80036" points="797.72,417.4,793.4537,423.2137,797.1793,429.3878,801.4456,423.5741,797.72,417.4" style="stroke: #A80036; stroke-width: 1.0;"/><text fill="#000000" font-family="sans-serif" font-size="13" lengthAdjust="spacingAndGlyphs" textLength="56" x="797.5" y="460.0669">mapping</text><!--MD5=[8b551108d892b3db74c6af13fbc3e1a5]
link GeneratorDMTETMesh to MappingNetwork--><path d="M855.3322,428.9068 C855.3322,428.9068 857.67,441.49 858.5,447 C873.05,543.9 867.22,659.95 862.77,717.67 " fill="none" id="GeneratorDMTETMesh-MappingNetwork-1" style="stroke: #A80036; stroke-width: 1.0;"/><polygon fill="#A80036" points="861.72,730.72,866.4386,722.0751,862.1266,725.7366,858.4651,721.4245,861.72,730.72" style="stroke: #A80036; stroke-width: 1.0;"/><line style="stroke: #A80036; stroke-width: 1.0;" x1="862.1266" x2="862.765" y1="725.7366" y2="717.76"/><polygon fill="#A80036" points="852.88,417.16,850.1905,423.8508,855.3322,428.9068,858.0217,422.216,852.88,417.16" style="stroke: #A80036; stroke-width: 1.0;"/><text fill="#000000" font-family="sans-serif" font-size="13" lengthAdjust="spacingAndGlyphs" textLength="87" x="861.5" y="460.0669">mapping_geo</text><!--MD5=[a116ecf2c47ba6fd926cb2b52af70ffd]
link networks_get3d_py to DMTETSynthesisNetwork--><path d="M644.14,62.2 C641.61,82.99 638.28,112.8 636.5,139 C628.6,255.3 624.16,384.19 621.68,493.82 " fill="none" id="networks_get3d_py-DMTETSynthesisNetwork" style="stroke: #A80036; stroke-width: 1.0; stroke-dasharray: 7.0,7.0;"/><text fill="#000000" font-family="sans-serif" font-size="13" lengthAdjust="spacingAndGlyphs" textLength="54" x="637.5" y="282.5669">contains</text><polygon fill="#000000" points="660,291.6328,663,297.6328,666,291.6328,660,291.6328" style="stroke: #000000; stroke-width: 1.0;"/><!--MD5=[c10adb9838987c5f62a6999fb61cf050]
link networks_get3d_py to GeneratorDMTETMesh--><path d="M664.93,62.25 C679.22,83.78 700.6,115.99 722.49,148.95 " fill="none" id="networks_get3d_py-GeneratorDMTETMesh" style="stroke: #A80036; stroke-width: 1.0; stroke-dasharray: 7.0,7.0;"/><text fill="#000000" font-family="sans-serif" font-size="13" lengthAdjust="spacingAndGlyphs" textLength="54" x="695.5" y="105.0669">contains</text><polygon fill="#000000" points="718,114.1328,721,120.1328,724,114.1328,718,114.1328" style="stroke: #000000; stroke-width: 1.0;"/><text fill="#888888" font-family="sans-serif" font-size="10" lengthAdjust="spacingAndGlyphs" textLength="191" x="606.5" y="1213.2822">Generated by GitUML www.gituml.com</text><!--MD5=[472f9f77406093d0735003c48d33b95b]
@startuml
class DMTETSynthesisNetwork {
    channels_last
    data_camera_mode
    deformation_multiplier
    device
    dmtet_geometry
    dmtet_scale
    feat_channel
    generator
    geometry_synthesis_def
    geometry_synthesis_sdf
    geometry_synthesis_tex
    geometry_type
    glctx
    grid_res
    img_channels
    img_resolution
    inference_noise_mode
    iso_surface
    mlp_latent_channel
    n_freq_posenc_geo
    n_views
    one_3d_generator
    render_type
    to_rgb
    use_tri_plane
    w_dim
    __init__()
    extract_3d_shape()
    forward()
    generate()
    generate_random_camera()
    generate_rotate_camera_list()
    get_geometry_prediction()
    get_sdf_deformation_prediction()
    get_texture_prediction()
    render_mesh()
    transform_points()
}

torch.nn.Module <|- DMTETSynthesisNetwork
DMTETSynthesisNetwork *- -> DMTetGeometry : dmtet_geometry
DMTETSynthesisNetwork *- -> FlexiCubesGeometry : dmtet_geometry
DMTETSynthesisNetwork *- -> dr.RasterizeGLContext : dmtet_geometry
DMTETSynthesisNetwork *- -> TriPlaneTexGeo : generator
DMTETSynthesisNetwork *- -> Conv3DImplicitSynthesisNetwork : geometry_synthesis_sdf
DMTETSynthesisNetwork *- -> Conv3DImplicitSynthesisNetwork : geometry_synthesis_def
DMTETSynthesisNetwork *- -> TriPlaneTex : geometry_synthesis_tex
DMTETSynthesisNetwork *- -> ToRGBLayer : to_rgb

class GeneratorDMTETMesh {
    c_dim
    device
    img_channels
    img_resolution
    mapping
    mapping_geo
    num_ws
    num_ws_geo
    style_mixing_prob
    synthesis
    use_style_mixing
    w_dim
    z_dim
    __init__()
    forward()
    generate_3d()
    generate_3d_mesh()
    update_w_avg()
}

torch.nn.Module <|- GeneratorDMTETMesh
GeneratorDMTETMesh *- -> DMTETSynthesisNetwork : synthesis
GeneratorDMTETMesh *- -> MappingNetwork : mapping
GeneratorDMTETMesh *- -> MappingNetwork : mapping_geo
class networks_get3d_py <<module>> << (M,orchid) >> #DarkSeaGreen {
}

networks_get3d_py .. DMTETSynthesisNetwork : contains >
networks_get3d_py .. GeneratorDMTETMesh : contains >
center footer Generated by GitUML www.gituml.com
@enduml

PlantUML version 1.2020.08(Sun Apr 26 14:08:22 UTC 2020)
(GPL source distribution)
Java Runtime: OpenJDK Runtime Environment
JVM: OpenJDK 64-Bit Server VM
Java Version: 1.8.0_402-heroku-b06
Operating System: Linux
Default Encoding: UTF-8
Language: en
Country: US
--></g></svg>